<?xml version="1.0" encoding="iso-8859-1"?>
<!-- Generator: Adobe Illustrator 19.0.0, SVG Export Plug-In . SVG Version: 6.00 Build 0)  -->
<svg version="1.1" id="Capa_1" xmlns="http://www.w3.org/2000/svg" xmlns:xlink="http://www.w3.org/1999/xlink" x="0px" y="0px"
	 viewBox="0 0 511.948 511.948" style="enable-background:new 0 0 511.948 511.948;" xml:space="preserve">
<g>
	<g>
		<path d="M511.816,17.956c0.16-4.544-1.408-9.088-5.024-12.352c-0.288-0.256-0.64-0.32-0.928-0.576
			c-0.192-0.16-0.288-0.448-0.48-0.608c-0.416-0.288-0.928-0.256-1.376-0.512c-1.664-0.992-3.36-1.664-5.184-1.984
			c-0.64-0.128-1.248-0.256-1.888-0.288c-2.208-0.128-4.384,0.16-6.464,0.928c-0.224,0.096-0.512,0-0.736,0.096l-0.384,0.16
			L41.704,194.66c-5.792,2.496-9.6,8.192-9.696,14.496c-0.064,6.304,3.552,12.096,9.312,14.752l182.688,84.32V433.38
			c0,6.784,4.256,12.8,10.656,15.072c1.76,0.608,3.552,0.928,5.344,0.928c4.704,0,9.312-2.08,12.416-5.92l72.16-88.832
			l132.704,61.248c2.144,0.992,4.448,1.504,6.72,1.504c2.784,0,5.568-0.704,8.064-2.176c4.512-2.624,7.456-7.296,7.872-12.48
			l32-383.968C511.976,18.468,511.784,18.244,511.816,17.956z M236.104,278.564l-148.736-68.64L434.376,61.22L236.104,278.564z
			 M256.008,388.324v-65.312l38.592,17.824L256.008,388.324z M449.96,377.284l-183.392-84.64l209.6-229.728L449.96,377.284z"/>
	</g>
</g>
<g>
	<g>
		<path d="M214.312,448.964c-8.288-2.976-16.704-0.192-19.776,8.096c-0.704,0.768-4.576,3.872-12.576,7.744
			c-7.968,3.84-11.296,13.408-7.424,21.376c2.752,5.728,8.48,9.024,14.432,9.024c2.336,0,4.704-0.512,6.944-1.6
			c22.816-11.04,26.08-19.808,27.136-22.72C226.056,462.628,222.6,452.036,214.312,448.964z"/>
	</g>
</g>
<g>
	<g>
		<path d="M122.824,478.372c-15.072,0-28.896-2.848-41.12-8.512c-8-3.648-17.536-0.192-21.248,7.84
			c-3.712,8-0.192,17.504,7.84,21.216c16.448,7.584,34.784,11.424,54.528,11.424h1.152c8.832,0,15.424-7.168,15.424-16
			C139.4,485.508,131.688,478.372,122.824,478.372z"/>
	</g>
</g>
<g>
	<g>
		<path d="M40.328,430.82c-3.424-5.824-6.592-12.288-9.472-19.424c-3.328-8.192-12.672-12.128-20.832-8.832
			c-8.192,3.328-12.16,12.64-8.864,20.832c3.52,8.704,7.424,16.64,11.648,23.744c2.976,5.024,8.32,7.84,13.792,7.84
			c2.752,0,5.568-0.704,8.128-2.208C42.312,448.26,44.84,438.468,40.328,430.82z"/>
	</g>
</g>
<g>
</g>
<g>
</g>
<g>
</g>
<g>
</g>
<g>
</g>
<g>
</g>
<g>
</g>
<g>
</g>
<g>
</g>
<g>
</g>
<g>
</g>
<g>
</g>
<g>
</g>
<g>
</g>
<g>
</g>
</svg>
