<?xml version="1.0" encoding="UTF-8" standalone="no"?>
<!-- Generator: Adobe Illustrator 16.0.0, SVG Export Plug-In . SVG Version: 6.00 Build 0)  -->

<svg
   xmlns:dc="http://purl.org/dc/elements/1.1/"
   xmlns:cc="http://creativecommons.org/ns#"
   xmlns:rdf="http://www.w3.org/1999/02/22-rdf-syntax-ns#"
   xmlns:svg="http://www.w3.org/2000/svg"
   xmlns="http://www.w3.org/2000/svg"
   xmlns:sodipodi="http://sodipodi.sourceforge.net/DTD/sodipodi-0.dtd"
   xmlns:inkscape="http://www.inkscape.org/namespaces/inkscape"
   version="1.1"
   id="Capa_1"
   x="0px"
   y="0px"
   width="205"
   height="234.64301"
   viewBox="0 0 205 234.643"
   enable-background="new 0 0 500 234.643"
   xml:space="preserve"
   sodipodi:docname="unlp.svg"
   inkscape:version="0.92.3 (2405546, 2018-03-11)"><metadata
   id="metadata183"><rdf:RDF><cc:Work
       rdf:about=""><dc:format>image/svg+xml</dc:format><dc:type
         rdf:resource="http://purl.org/dc/dcmitype/StillImage" /><dc:title></dc:title></cc:Work></rdf:RDF></metadata><defs
   id="defs181">
	
	
	
	
	
	
	
	
	
	
	
	
	
	
		
	
	
	
	
	
	
	
		
	
	
	
	
	
		
	
	
	
	
	
	
	
	
	
	
	
	
	
	
	
	
	
	
	
	
	
	
	
	
	
	
	
	
	
	
	
	
	
	
	
	
	
	
	
	
	
	
	
	
	
	
	
	
	
	
	
	
	
	
	
	
	
	
	
	
	
</defs><sodipodi:namedview
   pagecolor="#ffffff"
   bordercolor="#666666"
   borderopacity="1"
   objecttolerance="10"
   gridtolerance="10"
   guidetolerance="10"
   inkscape:pageopacity="0"
   inkscape:pageshadow="2"
   inkscape:window-width="1366"
   inkscape:window-height="715"
   id="namedview179"
   showgrid="false"
   inkscape:zoom="0.704"
   inkscape:cx="17.045455"
   inkscape:cy="117.3215"
   inkscape:window-x="0"
   inkscape:window-y="337"
   inkscape:window-maximized="1"
   inkscape:current-layer="Capa_1" />
<path
   style="fill:#ffffff"
   inkscape:connector-curvature="0"
   id="path2"
   d="m 195.022,109.235 c -0.588,0.206 -9.531,3.023 -13.621,4.311 1.271,-7.87 1.77,-21.668 -1.531,-31.486 0.992,-0.189 1.913,-0.378 2.7,-0.572 0.624,-0.146 1.085,-0.679 1.139,-1.32 1.083,-12.372 -2.217,-25.494 -9.334,-38.567 -7.757,-14.262 -17.83,-25.576 -30.423,-30.741 -0.639,-0.26 -1.367,-0.051 -1.776,0.505 -0.708,0.976 -1.751,2.361 -2.92,3.904 C 132.019,10.418 119.773,4.942 103.632,4.942 87.903,4.942 75.165,10.62 68.123,15.269 67.135,13.953 66.251,12.782 65.629,11.932 65.227,11.37 64.493,11.169 63.856,11.429 51.263,16.592 41.224,27.339 33.464,41.601 26.353,54.674 23.021,67.886 24.102,80.259 c 0.063,0.639 0.518,1.172 1.142,1.325 0.758,0.183 1.636,0.364 2.587,0.545 -3.39,9.741 -3.563,23.109 -2.371,30.823 -0.268,-0.067 -0.516,-0.133 -0.729,-0.187 -11.55,-2.958 -11.575,-2.958 -11.882,-2.958 -0.673,0 -1.264,0.454 -1.436,1.103 -2.908,10.712 -0.673,48.524 21.058,76.946 11.202,14.647 26.839,24.872 44.649,29.784 -1.077,2.234 -2.749,5.393 -3.748,7.131 -0.218,0.389 -0.229,0.865 -0.036,1.256 0.2,0.394 0.642,0.377 1.062,0.433 5.604,0.821 14.707,2.466 15.499,2.496 0.604,0.136 1.318,-0.112 1.768,-0.604 0.93,-1.021 1.984,-3.822 2.989,-7.509 3.028,0.225 7.152,0.072 10.324,0.078 h 0.044 c 2.609,0 6.374,0.18 8.884,0.009 0.996,3.649 2.042,6.408 2.971,7.422 0.449,0.492 1.16,0.74 1.766,0.604 0.788,-0.03 9.225,-1.79 14.83,-2.611 0.42,-0.061 0.863,-0.033 1.066,-0.434 0.195,-0.396 0.179,-0.867 -0.038,-1.247 -0.984,-1.732 -2.596,-4.535 -3.667,-6.735 17.22,-4.891 32.993,-15.355 44.191,-30.119 22.662,-29.88 24.452,-68.88 22.011,-77.604 z" /><path
   style="fill:#005f61"
   inkscape:connector-curvature="0"
   id="path4"
   d="m 144.744,26.351 c 0.456,0.258 0.921,0.406 1.391,0.442 0.06,0.004 0.12,0.005 0.18,0.005 0.417,0 0.843,-0.114 1.273,-0.333 0.468,-0.249 0.957,-0.677 1.452,-1.296 0.5,-0.628 0.806,-1.182 0.951,-1.698 0.148,-0.526 0.16,-1.019 0.026,-1.478 -0.127,-0.45 -0.373,-0.869 -0.729,-1.253 -0.331,-0.359 -0.713,-0.724 -1.157,-1.075 l -1.163,-0.933 -4.651,5.817 1.133,0.904 c 0.436,0.35 0.869,0.651 1.294,0.898 m 2.787,-5.81 0.292,0.235 c 0.316,0.255 0.54,0.519 0.663,0.774 0.122,0.257 0.163,0.51 0.146,0.768 -0.023,0.273 -0.121,0.556 -0.273,0.849 -0.165,0.308 -0.376,0.624 -0.634,0.946 -0.601,0.757 -1.181,1.185 -1.713,1.278 -0.088,0.012 -0.171,0.021 -0.259,0.021 -0.438,0 -0.901,-0.19 -1.379,-0.573 l -0.172,-0.136 z" /><polygon
   style="fill:#005f61"
   id="polygon6"
   points="149.802,31.339 150.594,30.558 148.718,28.651 150.31,27.094 151.604,28.414 152.379,27.654 151.088,26.321 152.417,25.016 154.167,26.799 154.99,25.995 152.133,23.085 146.821,28.304 " /><polygon
   style="fill:#005f61"
   id="polygon8"
   points="155.543,38.527 156.459,37.836 154.875,35.747 159.896,31.94 158.916,30.648 152.982,35.146 " /><path
   style="fill:#005f61"
   inkscape:connector-curvature="0"
   id="path10"
   d="m 156.324,39.714 2.33,-0.553 1.181,1.799 -1.397,1.962 0.949,1.436 4.603,-6.546 -0.64,-0.974 -7.78,1.734 z m 5.32,-1.22 -1.125,1.569 -0.764,-1.153 z" /><path
   style="fill:#005f61"
   inkscape:connector-curvature="0"
   id="path12"
   d="m 162.738,50.434 2.906,-1.481 0.058,0.119 c 0.148,0.29 0.31,0.583 0.476,0.883 0.192,0.325 0.413,0.609 0.67,0.835 0.277,0.248 0.593,0.407 0.95,0.475 0.091,0.017 0.178,0.028 0.276,0.028 0.293,0 0.619,-0.09 0.968,-0.269 0.457,-0.233 0.773,-0.519 0.935,-0.851 0.162,-0.318 0.225,-0.659 0.199,-1.017 -0.033,-0.33 -0.122,-0.669 -0.274,-1.004 -0.136,-0.312 -0.279,-0.61 -0.424,-0.891 l -0.825,-1.618 -0.3,0.159 c 0,0 -0.806,0.418 -0.944,0.488 l -5.386,2.745 z m 5.688,-2.902 0.246,0.485 c 0.178,0.347 0.241,0.65 0.19,0.906 -0.045,0.221 -0.239,0.425 -0.583,0.601 -0.209,0.108 -0.387,0.174 -0.577,0.158 -0.155,-0.004 -0.277,-0.049 -0.387,-0.133 -0.126,-0.094 -0.239,-0.223 -0.342,-0.384 -0.117,-0.195 -0.232,-0.39 -0.333,-0.595 l -0.052,-0.101 z" /><polygon
   style="fill:#005f61"
   id="polygon14"
   points="166.221,58.099 167.282,57.649 166.253,55.23 172.042,52.765 171.407,51.273 164.559,54.194 " /><path
   style="fill:#005f61"
   inkscape:connector-curvature="0"
   id="path16"
   d="m 166.813,59.714 2.388,0.054 0.696,2.036 -1.849,1.546 0.555,1.633 6.107,-5.181 -0.375,-1.098 -7.963,-0.287 z m 5.454,0.164 -1.485,1.234 -0.445,-1.31 z" /><polygon
   style="fill:#005f61"
   id="polygon18"
   points="175.909,68.127 176.982,67.829 175.526,62.114 174.453,62.388 174.978,64.496 168.85,66.065 169.234,67.575 175.374,66.03 " /><path
   style="fill:#005f61"
   inkscape:connector-curvature="0"
   id="path20"
   d="m 169.815,70.093 2.351,0.465 0.333,2.117 -2.088,1.216 0.274,1.702 6.895,-4.063 -0.178,-1.146 -7.797,-1.641 z m 5.348,1.095 -1.675,0.962 -0.213,-1.366 z" /><path
   style="fill:#005f61"
   inkscape:connector-curvature="0"
   id="path22"
   d="m 79.133,17.61 2.293,5.201 1.203,-0.529 -1.939,-4.399 4.544,3.247 1.284,-0.561 -2.882,-6.549 -1.199,0.532 1.78,4.035 -4.171,-2.981 -1.508,0.666 0.135,0.302 c 0,-0.001 0.384,0.863 0.46,1.036" /><path
   style="fill:#005f61"
   inkscape:connector-curvature="0"
   id="path24"
   d="m 89.003,17.631 1.973,-0.505 1.342,1.87 1.626,-0.418 -4.514,-6.22 -1.098,0.285 -0.853,7.601 1.3,-0.332 z m 0.324,-2.887 1.036,1.463 -1.242,0.316 z" /><path
   style="fill:#005f61"
   inkscape:connector-curvature="0"
   id="path26"
   d="m 94.004,16.283 c 0.19,0.462 0.444,0.855 0.752,1.17 0.307,0.321 0.677,0.56 1.088,0.718 0.33,0.133 0.686,0.192 1.056,0.192 0.098,0 0.199,-0.005 0.315,-0.019 0.178,-0.02 0.356,-0.044 0.537,-0.085 0.178,-0.039 0.341,-0.078 0.486,-0.121 0.146,-0.039 0.272,-0.076 0.377,-0.104 0.125,-0.043 0.21,-0.074 0.256,-0.092 l 0.212,-0.102 -0.173,-1.506 -0.45,0.285 c -0.142,0.096 -0.32,0.201 -0.53,0.315 -0.185,0.097 -0.438,0.173 -0.734,0.222 -0.047,0.002 -0.096,0.002 -0.144,0.002 -0.219,0 -0.416,-0.043 -0.583,-0.136 -0.215,-0.113 -0.406,-0.278 -0.557,-0.499 -0.167,-0.235 -0.304,-0.521 -0.405,-0.857 -0.106,-0.344 -0.182,-0.731 -0.216,-1.144 -0.031,-0.385 -0.049,-0.741 -0.045,-1.052 0.001,-0.274 0.039,-0.512 0.107,-0.706 0.068,-0.166 0.164,-0.301 0.31,-0.403 0.149,-0.103 0.374,-0.172 0.672,-0.211 0.149,-0.014 0.302,-0.022 0.458,-0.01 0.158,0.006 0.308,0.021 0.448,0.038 0.134,0.023 0.256,0.047 0.368,0.075 0.117,0.03 0.216,0.054 0.299,0.076 l 0.477,0.135 -0.169,-1.431 -0.266,-0.026 C 97.793,10.994 97.587,10.98 97.316,10.978 h -0.099 c -0.247,0 -0.521,0.016 -0.804,0.049 -1.068,0.099 -1.833,0.475 -2.271,1.124 -0.419,0.631 -0.586,1.509 -0.483,2.613 0.049,0.558 0.162,1.071 0.345,1.519" /><rect
   style="fill:#005f61;stroke-width:0.99999523"
   id="rect28"
   height="1.5039928"
   width="7.1499662"
   transform="rotate(86.290354)"
   y="-100.53477"
   x="17.303373" /><path
   style="fill:#005f61"
   inkscape:connector-curvature="0"
   id="path30"
   d="m 103.967,16.855 c 0.225,0.35 0.532,0.632 0.912,0.833 0.377,0.196 0.852,0.303 1.408,0.315 h 0.236 c 0.435,-0.016 0.82,-0.101 1.145,-0.24 0.383,-0.178 0.696,-0.437 0.935,-0.766 0.227,-0.32 0.401,-0.712 0.506,-1.159 0.096,-0.438 0.154,-0.922 0.161,-1.454 0.01,-0.499 -0.024,-0.974 -0.104,-1.404 -0.082,-0.452 -0.232,-0.851 -0.444,-1.187 -0.224,-0.352 -0.528,-0.63 -0.904,-0.834 -0.367,-0.199 -0.841,-0.307 -1.385,-0.32 -0.542,-0.008 -1.013,0.07 -1.393,0.24 -0.385,0.178 -0.692,0.428 -0.936,0.763 -0.237,0.318 -0.407,0.712 -0.509,1.166 -0.104,0.43 -0.154,0.924 -0.166,1.459 -0.009,0.498 0.023,0.97 0.098,1.4 0.071,0.45 0.224,0.851 0.44,1.188 m 1.1,-2.553 c 0.006,-0.334 0.024,-0.666 0.06,-1 0.026,-0.319 0.094,-0.609 0.198,-0.868 0.093,-0.232 0.223,-0.419 0.406,-0.567 0.141,-0.116 0.335,-0.178 0.589,-0.184 h 0.094 c 0.299,0.002 0.516,0.078 0.667,0.219 0.167,0.163 0.295,0.364 0.377,0.612 0.091,0.269 0.146,0.564 0.16,0.877 0.018,0.348 0.018,0.669 0.017,0.958 -0.009,0.317 -0.027,0.649 -0.058,0.99 -0.035,0.323 -0.098,0.608 -0.205,0.866 -0.094,0.239 -0.228,0.426 -0.397,0.568 -0.137,0.121 -0.327,0.178 -0.571,0.184 h -0.096 c -0.305,-0.001 -0.54,-0.08 -0.685,-0.222 -0.18,-0.162 -0.3,-0.362 -0.387,-0.607 -0.085,-0.268 -0.141,-0.564 -0.154,-0.878 -0.021,-0.355 -0.029,-0.666 -0.015,-0.948" /><path
   style="fill:#005f61"
   inkscape:connector-curvature="0"
   id="path32"
   d="m 112.169,13.549 2.082,5.191 1.391,0.211 1.091,-7.069 -1.3,-0.198 -0.674,4.355 -1.909,-4.75 -1.643,-0.257 -0.047,0.335 c 0,0 -0.126,0.932 -0.157,1.124 l -0.866,5.613 1.294,0.201 z" /><path
   style="fill:#005f61"
   inkscape:connector-curvature="0"
   id="path34"
   d="m 117.747,19.507 1.36,-1.839 1.956,0.573 0.192,2.297 1.617,0.477 -0.696,-7.659 -1.086,-0.321 -4.628,6.091 z m 3.118,-4.155 0.146,1.786 -1.23,-0.36 z" /><polygon
   style="fill:#005f61"
   id="polygon36"
   points="127.745,21.895 125.445,20.895 127.858,15.377 126.412,14.744 123.553,21.3 127.299,22.935 " /><path
   style="fill:#005f61"
   inkscape:connector-curvature="0"
   id="path38"
   d="m 34.819,76.043 h 0.03 c 0.348,0 0.671,-0.074 0.962,-0.217 0.302,-0.147 0.56,-0.395 0.767,-0.734 0.199,-0.326 0.333,-0.77 0.419,-1.36 0.088,-0.606 0.068,-1.093 -0.05,-1.486 -0.119,-0.397 -0.315,-0.716 -0.579,-0.947 -0.254,-0.224 -0.551,-0.387 -0.888,-0.482 -0.301,-0.081 -0.617,-0.145 -0.923,-0.193 l -4.409,-0.626 -0.2,1.398 4.507,0.642 c 0.227,0.033 0.45,0.076 0.68,0.118 0.192,0.041 0.354,0.113 0.502,0.219 0.129,0.093 0.226,0.232 0.299,0.406 0.042,0.123 0.085,0.364 0.031,0.806 -0.039,0.285 -0.125,0.485 -0.25,0.604 -0.137,0.133 -0.286,0.215 -0.464,0.258 -0.194,0.053 -0.393,0.068 -0.601,0.055 -0.236,-0.016 -0.438,-0.041 -0.603,-0.058 l -4.452,-0.635 -0.215,1.561 4.405,0.585 c 0.362,0.054 0.706,0.081 1.032,0.086" /><path
   style="fill:#005f61"
   inkscape:connector-curvature="0"
   id="path40"
   d="m 32.112,67.886 5.52,1.338 0.307,-1.275 -4.672,-1.131 5.342,-1.643 0.334,-1.368 -6.957,-1.676 -0.305,1.275 4.284,1.034 -4.898,1.503 -0.378,1.609 0.324,0.075 c 0,0.001 0.91,0.215 1.099,0.259" /><rect
   style="fill:#005f61;stroke-width:0.99999261"
   id="rect42"
   height="1.5079889"
   width="7.151947"
   transform="rotate(17.463743)"
   y="45.985992"
   x="49.177246" /><polygon
   style="fill:#005f61"
   id="polygon44"
   points="33.404,57.537 41.175,57.504 41.543,56.535 35.735,51.383 35.276,52.595 39.104,55.996 34.004,55.962 " /><polygon
   style="fill:#005f61"
   id="polygon46"
   points="44.461,49.554 43.469,49.097 42.401,51.418 40.492,50.547 41.235,48.929 40.265,48.487 39.512,50.094 37.922,49.361 38.922,47.187 37.899,46.713 36.248,50.284 42.744,53.28 " /><path
   style="fill:#005f61"
   inkscape:connector-curvature="0"
   id="path48"
   d="m 45.736,47.155 -2.759,-1.522 3.708,-0.184 0.852,-1.536 -3.926,0.19 c 0.018,-0.066 0.033,-0.135 0.042,-0.203 0.054,-0.247 0.065,-0.488 0.024,-0.725 -0.03,-0.252 -0.124,-0.486 -0.266,-0.702 -0.146,-0.217 -0.368,-0.412 -0.656,-0.565 -0.346,-0.2 -0.679,-0.299 -1.009,-0.303 -0.294,0 -0.571,0.074 -0.823,0.219 -0.231,0.137 -0.448,0.332 -0.645,0.577 -0.181,0.224 -0.349,0.487 -0.505,0.762 l -1.043,1.867 6.263,3.468 z m -3.47,-2.504 c -0.079,0.167 -0.161,0.321 -0.229,0.458 l -1.656,-0.914 0.186,-0.325 c 0.075,-0.143 0.168,-0.28 0.275,-0.398 0.093,-0.107 0.191,-0.183 0.301,-0.238 0.102,-0.049 0.205,-0.071 0.321,-0.071 h 0.008 c 0.115,0 0.248,0.041 0.399,0.127 0.234,0.125 0.391,0.268 0.454,0.405 0.068,0.146 0.096,0.294 0.084,0.452 -0.018,0.171 -0.062,0.339 -0.143,0.504" /><path
   style="fill:#005f61"
   inkscape:connector-curvature="0"
   id="path50"
   d="m 43.433,40.52 c 0.321,0.212 0.655,0.319 0.973,0.319 h 0.056 c 0.307,-0.012 0.616,-0.075 0.918,-0.195 0.287,-0.114 0.565,-0.253 0.837,-0.425 0.241,-0.153 0.487,-0.282 0.724,-0.398 0.215,-0.103 0.428,-0.164 0.632,-0.192 0.154,-0.024 0.308,0.02 0.463,0.118 0.256,0.171 0.393,0.365 0.415,0.574 0.029,0.236 -0.063,0.502 -0.26,0.801 -0.078,0.125 -0.176,0.244 -0.278,0.352 -0.106,0.113 -0.217,0.218 -0.321,0.312 -0.113,0.094 -0.217,0.176 -0.326,0.255 -0.102,0.074 -0.197,0.135 -0.271,0.183 l -0.457,0.272 1.195,0.795 0.191,-0.157 c 0.039,-0.026 0.107,-0.086 0.193,-0.18 0.079,-0.083 0.162,-0.175 0.271,-0.288 0.102,-0.113 0.208,-0.242 0.319,-0.377 0.117,-0.146 0.225,-0.294 0.328,-0.442 0.186,-0.286 0.339,-0.583 0.452,-0.886 0.121,-0.315 0.179,-0.639 0.176,-0.941 -0.006,-0.315 -0.08,-0.625 -0.225,-0.908 -0.147,-0.291 -0.387,-0.548 -0.716,-0.765 -0.334,-0.225 -0.686,-0.342 -1.058,-0.342 -0.328,0.005 -0.647,0.071 -0.954,0.189 -0.296,0.121 -0.587,0.265 -0.869,0.441 -0.26,0.164 -0.508,0.304 -0.738,0.425 -0.222,0.107 -0.433,0.178 -0.628,0.213 -0.147,0.026 -0.285,-0.004 -0.427,-0.099 -0.158,-0.108 -0.236,-0.241 -0.257,-0.417 -0.014,-0.208 0.054,-0.421 0.211,-0.655 0.087,-0.126 0.174,-0.247 0.281,-0.356 0.104,-0.106 0.217,-0.211 0.316,-0.294 0.104,-0.095 0.199,-0.17 0.293,-0.23 l 0.664,-0.456 -1.195,-0.792 -0.2,0.184 c -0.112,0.109 -0.255,0.264 -0.429,0.464 -0.18,0.203 -0.369,0.451 -0.553,0.729 -0.403,0.612 -0.598,1.198 -0.581,1.741 0.02,0.59 0.3,1.07 0.835,1.428" /><rect
   style="fill:#005f61;stroke-width:0.99999428"
   id="rect52"
   height="1.5069914"
   width="7.1529589"
   transform="rotate(37.344315)"
   y="-1.885013"
   x="56.942387" /><path
   style="fill:#005f61"
   inkscape:connector-curvature="0"
   id="path54"
   d="m 54.05,34.993 c 0.362,-0.394 0.672,-0.793 0.924,-1.186 0.275,-0.424 0.45,-0.863 0.507,-1.301 0.067,-0.462 -0.013,-0.939 -0.232,-1.416 -0.208,-0.471 -0.595,-0.956 -1.155,-1.469 -0.573,-0.511 -1.085,-0.843 -1.569,-1.009 -0.501,-0.165 -0.983,-0.207 -1.426,-0.105 -0.435,0.102 -0.852,0.306 -1.242,0.628 -0.369,0.296 -0.731,0.648 -1.085,1.047 l -0.965,1.068 5.309,4.784 z m -4.222,-4.435 c 0.263,-0.293 0.522,-0.487 0.775,-0.584 0.247,-0.099 0.491,-0.129 0.733,-0.095 0.257,0.039 0.521,0.14 0.787,0.305 0.287,0.17 0.581,0.395 0.872,0.66 0.677,0.613 1.055,1.183 1.113,1.693 0.062,0.504 -0.14,1 -0.614,1.527 l -0.129,0.14 -3.766,-3.385 z" /><path
   style="fill:#005f61"
   inkscape:connector-curvature="0"
   id="path56"
   d="m 57.838,31.008 -0.818,-2.14 1.547,-1.334 2.035,1.078 1.267,-1.101 -6.813,-3.559 -0.855,0.741 2.622,7.189 z m -1.81,-4.871 1.582,0.846 -0.97,0.841 z" /><path
   style="fill:#005f61"
   inkscape:connector-curvature="0"
   id="path58"
   d="m 63.6,26.418 c 0.452,-0.288 0.858,-0.592 1.208,-0.897 0.379,-0.335 0.656,-0.708 0.839,-1.124 0.177,-0.419 0.237,-0.896 0.151,-1.422 -0.076,-0.509 -0.313,-1.08 -0.732,-1.727 -0.408,-0.645 -0.811,-1.102 -1.233,-1.39 -0.439,-0.3 -0.887,-0.459 -1.341,-0.48 -0.444,-0.02 -0.907,0.072 -1.363,0.266 -0.43,0.187 -0.88,0.425 -1.333,0.713 l -1.224,0.781 3.842,6.03 z m -2.883,-5.403 c 0.33,-0.213 0.633,-0.332 0.9,-0.362 0.266,-0.026 0.508,0.009 0.733,0.108 0.237,0.103 0.464,0.274 0.675,0.501 0.231,0.25 0.458,0.543 0.664,0.868 0.496,0.78 0.7,1.428 0.623,1.934 -0.078,0.497 -0.407,0.922 -1.001,1.303 l -0.163,0.102 -2.722,-4.273 z" /><path
   style="fill:#005f61"
   inkscape:connector-curvature="0"
   id="path60"
   d="m 107.792,62.085 c 0.393,0.053 0.632,0.694 2.167,0.708 1.165,0.014 1.33,-0.724 1.483,-0.761 0.078,-0.021 0.157,-0.031 0.214,-0.129 -0.065,-0.122 -0.754,-0.385 -1.708,-0.421 -1.262,-0.046 -2.345,0.359 -2.46,0.474 0.088,0.058 0.155,0.107 0.304,0.129" /><path
   style="fill:#005f61"
   inkscape:connector-curvature="0"
   id="path62"
   d="m 104.797,55.69 c 0.264,-0.056 0.532,-0.153 0.796,-0.172 0.362,-0.029 0.64,-0.011 0.933,0.203 0.073,0.082 0.292,0.477 0.831,0.456 0.266,0.013 0.583,-0.093 0.704,-0.422 0.163,-0.1 0.54,0.136 0.634,0.052 0.225,-0.047 0.359,-0.246 0.454,-0.398 0.096,-0.158 0.255,-0.414 0.092,-0.592 -2.647,-1.467 -4.734,0.771 -4.734,0.771 -0.101,0.2 0.026,0.163 0.29,0.102" /><path
   style="fill:#005f61"
   inkscape:connector-curvature="0"
   id="path64"
   d="m 130.87,111.403 c -0.083,0.199 0.037,0.152 0.297,0.073 0.258,-0.082 1.031,-0.234 1.506,-0.126 0.228,0.053 0.429,0.538 1.108,0.455 0.239,-0.002 0.592,-0.358 0.702,-0.639 0.188,-0.175 0.839,-0.373 0.929,-0.392 0.211,-0.058 0.272,-0.389 -0.041,-0.565 -2.787,-1.113 -4.501,1.194 -4.501,1.194" /><path
   style="fill:#005f61"
   inkscape:connector-curvature="0"
   id="path66"
   d="m 66.456,112.76 c -0.219,0.342 -0.329,0.728 -0.325,0.949 0.01,0.221 0.348,0.153 0.427,0.106 0.107,-0.063 0.181,-0.121 0.24,-0.151 0.1,-0.035 0.188,-0.024 0.188,-0.024 0,0 0.068,0.153 0.172,0.203 0.115,0.057 0.241,0.05 0.241,0.05 0,0 0.203,0.007 0.332,-0.078 0.085,-0.057 0.233,-0.225 0.266,-0.486 0.03,-0.273 0.286,-0.334 0.491,-0.613 0.241,-0.333 0.538,-0.957 0.43,-0.988 -1.124,-0.173 -1.864,0.151 -2.462,1.032" /><path
   style="fill:#005f61"
   inkscape:connector-curvature="0"
   id="path68"
   d="m 134.826,117.216 c 0.371,0.036 0.623,0.633 2.078,0.576 1.097,-0.038 1.227,-0.737 1.367,-0.779 0.078,-0.024 0.153,-0.035 0.2,-0.129 -0.063,-0.112 -0.73,-0.34 -1.632,-0.326 -1.203,0.01 -2.204,0.436 -2.308,0.551 0.079,0.049 0.155,0.093 0.295,0.107" /><path
   style="fill:#005f61"
   inkscape:connector-curvature="0"
   id="path70"
   d="m 198.84,108.654 c -0.225,-0.803 -1.05,-1.273 -1.849,-1.056 -0.075,0.012 -0.143,0.036 -0.207,0.061 -0.598,0.21 -9.7,3.075 -13.859,4.387 1.293,-8.006 1.688,-19.211 -1.681,-29.19 1.018,-0.192 1.958,-0.389 2.756,-0.581 0.635,-0.156 1.106,-0.694 1.16,-1.347 1.101,-12.592 -2.421,-27.444 -9.658,-40.747 -7.896,-14.512 -19.297,-25.399 -32.113,-30.656 -0.647,-0.264 -1.394,-0.054 -1.805,0.511 -0.729,0.992 -1.785,2.401 -2.973,3.973 C 131.246,9.078 119.488,3.748 103.064,3.748 87.059,3.748 75.734,8.706 68.567,13.433 67.56,12.095 66.664,10.904 66.036,10.036 65.622,9.471 64.871,9.261 64.229,9.525 51.412,14.781 40.008,25.669 32.112,40.181 24.874,53.484 21.351,68.336 22.453,80.928 c 0.06,0.653 0.521,1.19 1.16,1.347 0.776,0.186 1.665,0.372 2.633,0.556 -3.452,9.913 -3.163,20.937 -1.947,28.791 -0.269,-0.073 -0.524,-0.136 -0.739,-0.191 -11.752,-3.005 -11.777,-3.005 -12.088,-3.005 -0.687,0 -1.285,0.456 -1.469,1.115 -2.953,10.906 -1.017,50.549 21.099,79.473 11.397,14.902 26.266,24.895 44.387,29.892 -1.099,2.271 -2.322,4.572 -3.333,6.349 -0.225,0.386 -0.235,0.867 -0.037,1.272 0.2,0.403 0.652,0.375 1.08,0.436 5.707,0.844 16.582,3.553 17.386,3.602 0.614,0.126 1.338,-0.122 1.796,-0.63 0.949,-1.038 2.018,-3.888 3.04,-7.635 3.086,0.229 6.237,0.352 9.459,0.352 h 0.055 c 2.652,0 5.251,-0.089 7.804,-0.258 1.02,3.708 2.081,6.511 3.021,7.542 0.458,0.508 1.182,0.757 1.799,0.63 0.806,-0.049 11.683,-2.758 17.389,-3.602 0.425,-0.061 0.877,-0.033 1.075,-0.436 0.203,-0.406 0.188,-0.886 -0.03,-1.272 -1.007,-1.758 -2.21,-4.012 -3.296,-6.257 17.517,-4.978 32.08,-15.01 43.469,-30.032 23.061,-30.408 25.16,-71.438 22.674,-80.313 m -16.456,6.609 c 0.279,0 0.471,0.091 0.626,0.294 0.339,0.45 -0.359,1.794 -0.975,2.986 -0.909,1.758 -1.847,3.571 -0.67,4.243 0.15,0.082 0.349,0.131 0.623,0.131 0.183,0 0.384,-0.017 0.595,-0.042 0.225,-0.021 0.455,-0.033 0.68,-0.033 0.773,0 1.144,0.246 1.287,0.847 0.239,1.028 -0.228,1.629 -1.015,2.496 -0.333,0.369 -0.862,0.79 -1.42,1.24 -1.399,1.121 -2.988,2.39 -2.594,3.674 0.171,0.549 0.548,0.819 0.884,1.056 0.339,0.247 0.614,0.435 0.672,0.896 0.049,0.417 -1.193,1.9 -2.571,3.405 -0.312,-0.512 -0.76,-0.921 -1.327,-1.199 -0.026,-0.017 -0.047,-0.024 -0.047,-0.024 l -0.339,-0.145 c -0.057,-0.02 -0.113,-0.036 -0.176,-0.057 0.889,-5.307 1.338,-10.913 0.856,-14.162 -0.024,-0.155 -0.041,-0.303 -0.071,-0.442 -0.107,-1.293 -1.106,-1.345 -1.218,-0.176 0,0.103 -0.017,0.218 -0.026,0.332 -0.227,3.045 -1.144,9.224 -2.214,14.801 -0.72,0.396 -1.359,1.023 -1.903,1.739 -2.224,-3.625 -2.622,-4.813 -2.521,-5.131 0.138,-0.435 0.44,-0.581 0.825,-0.753 0.363,-0.172 0.785,-0.368 1.055,-0.88 0.616,-1.194 -0.71,-2.734 -1.887,-4.087 -0.473,-0.54 -0.918,-1.048 -1.179,-1.474 -0.527,-0.859 -0.984,-1.604 -0.539,-2.635 0.194,-0.45 0.494,-0.653 0.975,-0.653 0.345,0 0.729,0.105 1.104,0.204 0.476,0.131 0.914,0.241 1.214,0.131 0.825,-0.286 0.875,-1.211 0.638,-2.336 -0.125,-0.612 -0.328,-1.287 -0.532,-1.955 -0.385,-1.276 -0.83,-2.729 -0.41,-3.118 0.436,-0.407 1.033,-0.072 1.692,0.332 0.495,0.309 1.002,0.62 1.532,0.62 0.195,0 0.385,-0.047 0.556,-0.132 0.684,-0.361 0.958,-1.754 1.181,-3.149 0.038,-0.226 0.065,-0.404 0.092,-0.53 0.273,-1.234 0.721,-1.862 1.352,-1.922 l 0.223,0.01 0.091,0.007 c 0.959,0.218 1.062,1.566 1.055,2.147 0,0.135 -0.019,0.35 -0.04,0.605 -0.124,1.375 -0.19,2.753 0.403,3.223 0.222,0.175 0.492,0.264 0.815,0.264 0.286,0 0.59,-0.073 0.905,-0.171 0.168,-0.049 0.342,-0.112 0.513,-0.167 0.429,-0.156 0.874,-0.31 1.23,-0.31 m -1.959,24.235 c 0.606,0 1.101,0.499 1.101,1.112 0,0.606 -0.495,1.105 -1.101,1.105 -0.614,0 -1.109,-0.499 -1.109,-1.105 0,-0.613 0.495,-1.112 1.109,-1.112 m -5.423,11.932 c 0.215,0.261 0.63,0.381 1.108,0.516 1.013,0.29 1.669,0.543 1.552,1.457 -0.157,1.113 -0.926,1.518 -1.828,1.977 -0.448,0.233 -1.09,0.438 -1.768,0.659 -1.706,0.548 -3.646,1.17 -3.73,2.521 -0.038,0.573 0.225,0.954 0.45,1.297 0.239,0.348 0.419,0.623 0.316,1.072 -0.094,0.397 -1.652,1.327 -4.647,2.788 0.065,-0.271 0.112,-0.541 0.122,-0.807 0.028,-0.61 -0.099,-1.175 -0.375,-1.682 2.782,-4.857 5.097,-10.197 5.655,-13.372 0.349,-1.253 -0.291,-1.687 -0.804,-0.623 -0.954,2.767 -3.705,7.742 -6.569,12.456 -0.377,-0.155 -0.776,-0.237 -1.214,-0.237 -0.782,0 -1.582,0.253 -2.324,0.63 -0.518,-3.016 -0.466,-3.994 -0.284,-4.223 0.288,-0.365 0.624,-0.386 1.041,-0.418 0.408,-0.037 0.869,-0.069 1.303,-0.45 1.003,-0.9 0.298,-2.808 -0.33,-4.493 -0.244,-0.671 -0.483,-1.301 -0.579,-1.792 -0.19,-0.99 -0.354,-1.846 0.433,-2.66 0.228,-0.228 0.464,-0.352 0.725,-0.352 0.454,0 0.939,0.36 1.373,0.67 0.401,0.295 0.748,0.54 1.121,0.553 1.326,0 1.458,-2.021 1.587,-3.974 0.091,-1.343 0.194,-2.856 0.714,-3.061 0.569,-0.238 1.008,0.302 1.47,0.9 0.489,0.638 0.998,1.289 1.781,1.195 0.769,-0.09 1.514,-1.297 2.212,-2.521 0.117,-0.197 0.213,-0.361 0.276,-0.467 0.698,-1.064 1.324,-1.506 1.955,-1.317 l 0.178,0.074 0.204,0.123 c 0.687,0.58 0.326,1.792 0.125,2.307 -0.049,0.126 -0.141,0.32 -0.253,0.553 -0.603,1.239 -1.151,2.507 -0.759,3.159 0.41,0.675 1.279,0.695 2.116,0.716 0.977,0.017 1.584,0.069 1.749,0.639 0.154,0.543 -0.979,1.563 -1.969,2.458 -1.473,1.322 -2.998,2.685 -2.133,3.729 m -7.385,15.563 c 0,0.609 -0.495,1.109 -1.106,1.109 -0.607,0 -1.104,-0.5 -1.104,-1.109 0,-0.606 0.497,-1.102 1.104,-1.102 0.612,0 1.106,0.496 1.106,1.102 m -9.545,7.951 c 0.115,0.319 0.461,0.572 0.862,0.867 0.855,0.614 1.382,1.08 0.951,1.891 -0.522,0.998 -1.39,1.104 -2.39,1.235 -0.429,0.049 -1.139,0.033 -1.887,0 -0.427,-0.017 -0.867,-0.026 -1.298,-0.026 -1.2,0 -2.634,0.12 -3.065,1.111 -0.24,0.532 -0.129,0.982 -0.031,1.378 0.101,0.41 0.181,0.729 -0.078,1.114 -0.25,0.384 -2.497,0.719 -4.723,0.958 0.08,-0.59 -0.007,-1.171 -0.254,-1.727 l -0.126,-0.291 c 4.432,-3.679 8.647,-8.078 10.316,-10.956 0.764,-1.05 0.305,-1.678 -0.542,-0.857 -2.011,2.468 -6.895,6.644 -11.561,10.302 -0.457,-0.167 -0.983,-0.253 -1.563,-0.253 -0.336,0 -0.694,0.028 -1.055,0.086 0.694,-4.26 1.168,-5.439 1.459,-5.61 0.348,-0.221 0.712,-0.155 1.114,-0.042 0.419,0.115 0.91,0.213 1.381,0.026 1.25,-0.492 1.245,-2.529 1.237,-4.321 0,-0.719 -0.004,-1.399 0.076,-1.887 0.162,-0.995 0.297,-1.862 1.316,-2.349 0.184,-0.086 0.354,-0.136 0.508,-0.136 0.579,0 0.994,0.614 1.353,1.154 0.279,0.417 0.52,0.775 0.839,0.892 0.131,0.058 0.26,0.082 0.394,0.082 1.052,0 1.784,-1.654 2.491,-3.258 0.544,-1.219 1.158,-2.611 1.753,-2.627 0.564,0 0.766,0.512 1.038,1.359 0.23,0.728 0.495,1.555 1.268,1.728 0.724,0.179 1.87,-0.701 2.948,-1.604 0.168,-0.148 0.312,-0.271 0.41,-0.336 1.074,-0.793 1.847,-0.949 2.349,-0.527 l 0.075,0.074 0.159,-0.136 -0.133,0.172 0.035,0.033 c 0.628,0.793 -0.19,1.898 -0.581,2.342 -0.087,0.097 -0.244,0.253 -0.426,0.429 -0.989,0.962 -1.945,1.96 -1.8,2.704 0.148,0.778 0.959,1.097 1.737,1.399 0.909,0.361 1.462,0.614 1.422,1.209 -0.042,0.567 -1.453,1.129 -2.697,1.624 -1.833,0.736 -3.731,1.492 -3.281,2.774 m -11.685,12.281 c 0,0.604 -0.499,1.099 -1.107,1.099 -0.611,0 -1.105,-0.494 -1.105,-1.099 0,-0.609 0.494,-1.109 1.105,-1.109 0.608,0 1.107,0.499 1.107,1.109 m -6.052,1.82 c 0.737,0.637 1.168,1.064 0.929,1.608 -0.224,0.52 -1.738,0.576 -3.077,0.635 -1.975,0.082 -4.015,0.162 -4.02,1.521 0,0.335 0.25,0.696 0.532,1.106 0.596,0.871 0.936,1.485 0.269,2.102 -0.417,0.377 -0.847,0.553 -1.396,0.553 -0.384,0 -0.79,-0.086 -1.277,-0.192 -0.486,-0.103 -1.112,-0.36 -1.773,-0.623 -1.074,-0.417 -2.286,-0.9 -3.227,-0.9 -0.542,0 -0.965,0.157 -1.256,0.466 -0.395,0.426 -0.443,0.886 -0.482,1.289 -0.041,0.422 -0.071,0.755 -0.447,1.029 -0.01,0.017 -0.112,0.073 -0.482,0.073 -1.626,0 -5.885,-1.121 -8.037,-1.685 0.548,-0.173 1.103,-0.354 1.664,-0.553 6.071,-2.008 12.698,-5.214 15.575,-7.666 1.072,-0.743 0.847,-1.481 -0.221,-0.989 -2.951,1.8 -9.76,4.371 -15.751,6.335 -0.513,0.18 -1.099,0.372 -1.643,0.539 -0.005,-0.072 -0.005,-0.138 -0.01,-0.22 2.707,-5.111 3.727,-6.318 4.097,-6.391 0.43,-0.094 0.73,0.098 1.067,0.335 0.323,0.229 0.683,0.488 1.225,0.488 h 0.063 c 1.344,-0.054 2.019,-1.978 2.613,-3.673 0.236,-0.67 0.458,-1.308 0.692,-1.746 0.487,-0.881 0.904,-1.65 2.028,-1.776 0.908,-0.104 1.158,0.586 1.413,1.584 0.123,0.478 0.229,0.9 0.49,1.121 0.203,0.171 0.431,0.262 0.686,0.262 0.927,0 2.027,-1.169 3.096,-2.292 0.958,-1.015 1.97,-2.079 2.5,-1.915 0.562,0.181 0.581,0.741 0.556,1.645 -0.024,0.757 -0.054,1.62 0.617,2.046 0.17,0.105 0.393,0.164 0.678,0.164 0.792,0 1.903,-0.418 2.639,-0.697 0.211,-0.077 0.389,-0.147 0.499,-0.18 1.226,-0.377 1.99,-0.295 2.341,0.208 l 0.086,0.16 c 0.007,0.016 0.01,0.033 0.019,0.049 l 0.03,0.065 c 0.313,0.949 -0.82,1.711 -1.332,1.997 -0.119,0.065 -0.31,0.157 -0.542,0.263 -1.256,0.576 -2.495,1.202 -2.605,1.957 -0.119,0.776 0.54,1.35 1.174,1.898 m -36.393,-4.814 c -4.467,0 -8.688,-4.115 -10.873,-9.763 1.575,-0.67 6.469,-2.677 7.062,-2.522 0.662,0.354 2.183,0.992 2.183,1.034 v 7.028 c 0,1.048 3.225,1.221 3.93,0.24 0.027,-0.033 0,-1.721 0,-1.721 -0.475,0.476 -1.771,0.582 -1.97,0.026 -0.013,-0.033 -0.023,-4.903 -0.023,-4.985 0,0 0.367,0.105 0.731,-0.115 0.244,-0.155 0.313,-0.34 0.511,-0.417 0.271,-0.094 0.458,0.089 0.804,-0.082 0.158,-0.083 0.364,-0.329 0.517,-0.39 0.214,-0.084 0.579,0.038 0.769,-0.054 0.184,-0.089 0.368,-0.293 0.537,-0.352 0.258,-0.089 0.59,0.157 1.136,-0.368 1.208,0.467 2.086,0.104 2.423,0.104 0.034,0 2.459,1.076 3.425,1.678 -2.112,6.338 -6.316,10.659 -11.162,10.659 m 2.329,17.746 c -1.571,0.047 -2.462,0.016 -4.039,0 -0.941,-1.868 -1.334,-10.108 -0.405,-13.185 2.12,0 2.701,-0.063 4.444,0 0.844,3.126 1.069,11.285 0,13.185 m -6.315,0.061 c -2.169,-0.075 -3.826,-0.234 -4.12,-0.487 -1.105,-0.978 -2.459,-8.929 0.055,-12.125 0.229,-0.295 1.694,-0.504 3.672,-0.626 -1.121,3.184 -1.457,9.746 0.393,13.238 m 1.099,-53.893 c 1.366,-0.863 3.952,-2.239 5.592,0.144 1.028,1.497 2.452,4.911 2.822,7.223 -3.763,-0.847 -7.563,-0.389 -9.825,0 -0.258,-0.827 2.818,-5.635 4.552,-7.445 -1.655,0 -2.975,1.719 -3.965,2.959 -0.533,0.084 -1.705,-0.986 0.824,-2.881 m -0.383,-5.668 c 0,-1.727 1.533,-3.115 3.438,-3.115 1.889,0 3.431,1.388 3.431,3.115 0,0.18 -0.025,0.36 -0.058,0.532 -1.073,-0.352 -2.194,-0.54 -3.345,-0.54 -1.171,0 -2.31,0.195 -3.408,0.552 -0.037,-0.176 -0.058,-0.357 -0.058,-0.544 m 11.006,23.227 c -1.368,-1.138 -3.321,-1.972 -4.527,-1.931 -1.157,0.028 -3.116,0.95 -3.116,0.95 l -0.005,-7.784 c 0,0 0.81,-0.597 1.549,0 -0.033,-0.017 -0.031,3.802 -0.01,3.797 2.504,0.115 8.458,0.394 10.971,1.286 0.094,1.26 -0.008,3.667 -0.048,4.362 -1.158,-0.148 -3.063,-0.422 -4.814,-0.68 m 4.66,2.282 c -0.154,1.261 -0.38,2.489 -0.673,3.659 -1.396,-0.533 -3.687,-1.338 -3.81,-1.308 -0.724,0.134 -1.131,0.134 -1.749,-0.173 -1.316,-0.78 -1.727,-2.227 -2.967,-3.256 -1.314,0 -2.983,0.842 -3.729,0.721 -0.75,-0.115 -0.63,-0.786 -0.63,-0.786 0.126,-0.074 0.929,-0.381 0.955,-0.406 0.69,-0.716 2.384,-1.313 3.373,-1.399 0,0 1.702,0.135 3.785,2.062 1.378,0.241 4.484,0.755 5.445,0.886 m -13.728,-7.127 -0.02,2.275 c 0,0 -2.459,0.491 -4.236,2.635 -0.573,0.442 -4.843,1.776 -6.782,2.39 -0.158,-1.261 -0.246,-2.563 -0.246,-3.896 0,-0.21 0.008,-1.65 0.019,-1.858 1.761,-0.729 7.928,-1.595 11.265,-1.546 m -3.243,6.007 c 1.099,-1.834 3.227,-2.3 3.223,-2.3 -0.023,-0.003 0,1.101 0,1.064 0,0.016 -0.657,0.392 -0.945,0.842 0,0.729 0.324,1.723 1.066,2.013 1.002,0.394 2.518,0.026 3.572,-0.15 0.332,0.405 1.15,1.887 1.772,2.431 -0.505,0.372 -0.808,0.15 -1.007,0.204 -0.225,0.065 -0.241,0.241 -0.434,0.328 -0.19,0.089 -0.452,0.044 -0.646,0.115 -0.215,0.068 -0.233,0.276 -0.45,0.389 -0.338,0.171 -0.505,-0.047 -0.842,0.089 -0.26,0.105 -0.213,0.426 -0.792,0.246 -0.458,-0.141 -0.984,-0.382 -1.33,-0.565 -1.188,-0.623 -1.651,-1.174 -2.322,-1.211 -0.999,-0.049 -6.209,1.603 -7.772,2.259 -0.315,-1.031 -0.469,-1.842 -0.669,-2.961 1.528,-0.592 7.437,-2.568 7.576,-2.793 m 9.418,21.966 c 1.876,0.131 3.431,0.345 3.749,0.663 2.115,2.079 1.511,10.361 -0.203,11.924 -0.248,0.22 -1.722,0.4 -3.693,0.508 1.373,-3.414 1.601,-8.274 0.147,-13.095 m 0.083,-3.609 c 5.86,-3.004 10.077,-11.319 10.077,-21.115 0,-9.699 -4.075,-17.535 -9.828,-20.427 l 2.526,0.041 c 0,0 1.184,-0.065 1.266,-0.585 0.077,-0.524 -1.058,-0.831 -1.058,-0.831 l -2.775,-0.777 c -0.023,-0.107 -0.055,-0.222 -0.082,-0.332 l 2.379,-1.506 c 0,0 0.958,-0.709 0.741,-1.183 -0.228,-0.478 -1.346,-0.114 -1.346,-0.114 l -2.828,0.9 c -0.095,-0.102 -0.194,-0.205 -0.291,-0.295 l 1.347,-2.553 c 0,0 0.384,-0.925 -0.051,-1.224 -0.426,-0.299 -1.122,0.406 -1.122,0.406 l -2.06,2.25 c -0.158,-0.054 -0.323,-0.098 -0.491,-0.139 l -0.383,-2.988 c 0,0 -0.195,-1.01 -0.72,-1.01 -0.529,0 -0.708,1.01 -0.708,1.01 l -0.379,2.955 c -0.176,0.033 -0.343,0.074 -0.511,0.131 l -2.023,-2.21 c 0,0 -0.763,-0.712 -1.195,-0.414 -0.43,0.307 0.021,1.231 0.021,1.231 l 1.298,2.448 c -0.124,0.114 -0.241,0.233 -0.355,0.355 l -2.841,-0.903 c 0,0 -1.012,-0.254 -1.233,0.225 -0.214,0.475 0.634,1.072 0.634,1.072 l 2.355,1.485 c -0.035,0.131 -0.071,0.254 -0.096,0.386 l -2.836,0.793 c 0,0 -1.132,0.307 -1.058,0.831 0.079,0.52 1.271,0.585 1.271,0.585 l 2.623,-0.041 c -5.797,2.888 -9.987,10.729 -9.987,20.427 0,9.763 4.184,18.06 10.022,21.087 -2.247,0.363 -4.06,0.987 -5.116,1.746 -4.915,-4.354 -8.726,-12.137 -9.56,-21.5 0,0 2.6,-0.793 2.742,-4.763 0.119,-3.314 -2.742,-4.689 -2.742,-4.689 1.944,-12.485 9.81,-23.219 19.615,-23.219 9.882,0 17.178,10.152 19.232,23.12 0.078,-0.081 -2.45,1.105 -2.296,4.821 0.178,4.104 2.452,4.821 2.452,4.739 -0.779,9.675 -4.63,17.474 -9.459,21.672 -0.978,-0.818 -2.828,-1.497 -5.171,-1.898 m -35.06,2.585 c 2.879,2.451 9.501,5.657 15.568,7.666 0.452,0.159 0.899,0.307 1.346,0.455 -2.255,0.588 -6.014,1.547 -7.522,1.547 -0.368,0 -0.464,-0.059 -0.482,-0.075 -0.371,-0.276 -0.406,-0.604 -0.444,-1.026 -0.042,-0.405 -0.083,-0.862 -0.482,-1.284 -0.293,-0.317 -0.711,-0.476 -1.254,-0.476 -0.943,0 -2.158,0.48 -3.229,0.909 -0.662,0.265 -1.284,0.511 -1.773,0.619 -0.487,0.112 -0.891,0.187 -1.275,0.187 -0.551,0 -0.981,-0.168 -1.394,-0.548 -0.676,-0.623 -0.332,-1.234 0.267,-2.104 0.281,-0.407 0.526,-0.768 0.526,-1.108 -0.002,-1.354 -2.045,-1.436 -4.017,-1.518 -1.339,-0.049 -2.856,-0.115 -3.078,-0.638 -0.238,-0.541 0.192,-0.965 0.933,-1.603 0.634,-0.549 1.289,-1.123 1.176,-1.901 -0.117,-0.752 -1.344,-1.374 -2.603,-1.955 -0.24,-0.108 -0.425,-0.197 -0.546,-0.263 -0.504,-0.286 -1.621,-1.031 -1.341,-1.964 l 0.133,-0.286 c 0.367,-0.532 1.126,-0.607 2.353,-0.23 0.113,0.033 0.29,0.099 0.5,0.181 0.737,0.276 1.85,0.693 2.644,0.693 0.281,0 0.506,-0.049 0.673,-0.154 0.664,-0.434 0.642,-1.293 0.616,-2.053 -0.028,-0.91 -0.004,-1.467 0.556,-1.638 0.529,-0.169 1.541,0.883 2.503,1.907 1.067,1.129 2.169,2.292 3.085,2.292 0.261,0 0.494,-0.091 0.692,-0.262 0.262,-0.225 0.364,-0.635 0.49,-1.123 0.258,-0.998 0.516,-1.685 1.416,-1.58 1.047,0.115 1.462,0.745 2.026,1.776 0.236,0.431 0.458,1.074 0.699,1.744 0.587,1.694 1.26,3.618 2.61,3.675 h 0.061 c 0.546,0 0.907,-0.263 1.224,-0.488 0.336,-0.232 0.635,-0.429 1.063,-0.34 0.388,0.082 1.471,1.369 4.432,7.014 -0.721,-0.213 -1.449,-0.44 -2.177,-0.703 -5.995,-1.964 -12.804,-4.535 -15.754,-6.335 -1.068,-0.491 -1.296,0.247 -0.221,0.99 m -10.552,-7.964 c -4.622,-3.632 -9.436,-7.757 -11.433,-10.203 -0.844,-0.82 -1.302,-0.192 -0.537,0.857 1.678,2.895 5.928,7.316 10.387,11.012 -0.288,0.659 -0.356,1.322 -0.208,1.99 -2.304,-0.241 -4.709,-0.586 -4.974,-0.982 -0.253,-0.389 -0.174,-0.708 -0.075,-1.118 0.098,-0.396 0.204,-0.846 -0.024,-1.378 -0.432,-0.991 -1.867,-1.111 -3.063,-1.111 -0.436,0 -0.878,0.01 -1.303,0.026 -0.748,0.033 -1.458,0.049 -1.886,0 -1.001,-0.131 -1.867,-0.237 -2.391,-1.235 -0.436,-0.811 0.095,-1.277 0.949,-1.891 0.402,-0.295 0.751,-0.548 0.864,-0.872 0.45,-1.277 -1.449,-2.034 -3.283,-2.77 -1.243,-0.495 -2.651,-1.057 -2.688,-1.624 -0.044,-0.595 0.501,-0.848 1.412,-1.209 0.784,-0.302 1.588,-0.621 1.737,-1.399 0.15,-0.74 -0.804,-1.742 -1.791,-2.7 -0.188,-0.18 -0.341,-0.336 -0.437,-0.433 -0.384,-0.447 -1.215,-1.556 -0.578,-2.342 l 0.136,-0.139 c 0.527,-0.442 1.276,-0.266 2.346,0.524 0.101,0.066 0.243,0.188 0.416,0.336 0.978,0.826 2.001,1.627 2.745,1.627 0.074,0 0.135,-0.007 0.201,-0.023 0.772,-0.172 1.036,-1 1.264,-1.728 0.271,-0.847 0.477,-1.359 1.072,-1.359 h 0.002 c 0.563,0.017 1.174,1.409 1.721,2.627 0.705,1.604 1.44,3.258 2.49,3.258 h 0.003 c 0.129,0 0.263,-0.024 0.392,-0.082 0.315,-0.117 0.556,-0.475 0.834,-0.892 0.36,-0.54 0.776,-1.154 1.353,-1.154 0.156,0 0.326,0.049 0.51,0.136 1.019,0.487 1.154,1.354 1.319,2.349 0.071,0.487 0.071,1.167 0.071,1.887 -0.003,1.792 -0.011,3.829 1.245,4.321 0.469,0.188 0.959,0.089 1.377,-0.026 0.403,-0.113 0.764,-0.178 1.115,0.042 0.282,0.164 0.743,1.3 1.41,5.336 -0.277,-0.037 -0.546,-0.054 -0.806,-0.054 -0.725,0.001 -1.356,0.139 -1.894,0.396 m 0.661,7.368 c 0,0.612 -0.496,1.104 -1.105,1.104 -0.607,0 -1.1,-0.492 -1.1,-1.104 0,-0.611 0.493,-1.101 1.1,-1.101 0.609,0 1.105,0.49 1.105,1.101 M 35.773,147.854 c 0.564,3.175 2.877,8.515 5.655,13.372 -0.274,0.507 -0.401,1.072 -0.374,1.682 0.014,0.266 0.058,0.536 0.121,0.807 -2.989,-1.461 -4.552,-2.39 -4.643,-2.788 -0.104,-0.45 0.08,-0.724 0.311,-1.072 0.233,-0.343 0.487,-0.724 0.452,-1.297 -0.083,-1.35 -2.017,-1.972 -3.729,-2.521 -0.68,-0.221 -1.322,-0.425 -1.761,-0.659 -0.902,-0.458 -1.675,-0.863 -1.832,-1.977 -0.121,-0.913 0.53,-1.167 1.547,-1.457 0.48,-0.135 0.892,-0.255 1.109,-0.516 0.861,-1.044 -0.654,-2.407 -2.126,-3.729 -0.996,-0.895 -2.123,-1.915 -1.964,-2.458 0.162,-0.569 0.768,-0.622 1.741,-0.639 0.843,-0.021 1.706,-0.041 2.115,-0.716 0.394,-0.651 -0.163,-1.919 -0.756,-3.159 -0.11,-0.233 -0.207,-0.427 -0.256,-0.553 -0.2,-0.516 -0.56,-1.719 0.132,-2.304 v 0.004 l 0.227,-0.147 0.129,-0.058 c 0.636,-0.188 1.262,0.236 1.978,1.317 0.063,0.106 0.156,0.271 0.274,0.467 0.7,1.223 1.447,2.43 2.21,2.521 0.784,0.094 1.297,-0.557 1.784,-1.195 0.467,-0.598 0.898,-1.138 1.475,-0.9 0.518,0.204 0.624,1.718 0.709,3.061 0.126,1.952 0.263,3.974 1.616,3.974 h 0.002 c 0.338,-0.013 0.689,-0.258 1.086,-0.553 0.432,-0.311 0.921,-0.67 1.379,-0.67 0.26,0 0.493,0.124 0.719,0.352 0.787,0.814 0.621,1.67 0.432,2.66 -0.093,0.491 -0.329,1.122 -0.581,1.792 -0.62,1.685 -1.326,3.593 -0.323,4.493 0.434,0.381 0.896,0.414 1.302,0.45 0.421,0.033 0.752,0.054 1.04,0.418 0.178,0.229 0.233,1.207 -0.285,4.223 -0.739,-0.377 -1.541,-0.63 -2.325,-0.63 -0.434,0 -0.839,0.082 -1.215,0.237 -2.864,-4.714 -5.608,-9.689 -6.563,-12.456 -0.513,-1.062 -1.155,-0.628 -0.812,0.624 m 5.813,19.139 c 0,0.609 -0.491,1.109 -1.099,1.109 -0.614,0 -1.106,-0.5 -1.106,-1.109 0,-0.606 0.492,-1.102 1.106,-1.102 0.609,0 1.099,0.496 1.099,1.102 M 27.634,141.715 c -0.614,0 -1.111,-0.499 -1.111,-1.105 0,-0.613 0.497,-1.112 1.111,-1.112 0.608,0 1.103,0.499 1.103,1.112 0,0.606 -0.494,1.105 -1.103,1.105 M 40.92,131.256 c -0.175,-0.7 -1.185,-1.416 -1.738,-1.706 0.156,-0.192 0.32,-0.393 0.497,-0.594 1.483,-1.751 3.507,-4.149 3.307,-6.911 -0.041,-0.535 -0.16,-2.172 -1.663,-2.899 -0.111,-0.052 -0.224,-0.093 -0.332,-0.131 1.05,-0.261 2.191,-0.546 3.426,-0.863 1.138,-0.289 2.133,-1.09 2.736,-2.203 0.708,-1.299 0.814,-2.912 0.296,-4.426 -0.754,-2.215 -2.137,-7.107 -1.941,-12.902 5.542,-1.093 13.577,-1.656 19.861,-1.643 1.324,0.001 1.657,-1.547 0.315,-1.547 -1.218,0 -14.54,-0.016 -19.906,-0.023 0.114,-0.824 0.266,-1.659 0.461,-2.501 0.649,0.002 2.521,-0.007 2.521,-0.007 l -0.004,-1.464 h 5.422 l -0.008,1.281 2.462,0.019 c 0,0 0.663,-1.555 0.675,-2.834 0.009,-0.695 -0.317,-1.454 -0.317,-1.454 h 4.226 c 0,0 -0.315,0.62 -0.324,1.414 -0.006,1.307 0.684,2.88 0.684,2.88 L 63.95,92.736 V 91.88 l 2.537,-0.004 0.008,0.926 1.36,-0.007 0.013,-1.348 h 2.976 v 1.383 l 6.699,0.004 0.038,6.762 c 0,0 -5.698,-3.866 -12.178,0.143 -1.963,1.209 -3.847,3.157 -4.61,5.532 -1.028,3.19 -0.24,5.796 0.104,6.553 0.936,2.063 3.069,3.713 4.198,4.099 0.941,0.887 1.676,2.228 2.396,2.6 0.472,0.244 1.035,-0.266 1.54,-0.268 0.276,0 0.447,0.441 0.904,0.707 0.557,0.321 0.785,0.407 0.974,0.566 0.356,0.306 0.872,0.688 1.439,0.773 1.089,0.16 1.78,-0.62 2.347,-1.306 0.237,-0.291 0.869,0.912 0.806,0.936 -2.015,0.674 -3.221,2.748 -4.022,4.157 -0.808,1.407 -2.779,5.901 -2.779,5.901 0,0 -4.599,-2.19 -5.548,-2.088 -5.25,0.328 -7.782,3.176 -7.782,3.176 0,0 -2.784,-2.348 -6.664,-0.925 -3.208,1.183 -2.97,3.896 -2.97,3.896 l -2.052,2.299 0.462,6.229 -1.086,0.516 c -0.078,-1.596 -0.233,-3.602 -1.064,-5.075 -0.705,-1.235 -1.727,-1.571 -3.173,-1.04 -0.368,0.148 -0.743,0.401 -1.078,0.68 1.703,-2.48 3.434,-5.349 3.175,-6.401 m -1.157,-17.709 c -0.208,-1.399 -1.059,-2.083 -2.599,-2.088 -0.812,0 -1.777,0.451 -2.411,0.752 -0.11,0.047 -0.222,0.101 -0.317,0.143 -0.149,-2.013 -1.081,-4.706 -3.143,-5.346 l -0.854,-0.135 c -0.133,-0.007 -0.268,0 -0.406,0.012 v 0 l -0.086,0.008 c -0.919,0.093 -1.673,0.504 -2.245,1.23 -0.266,0.328 -0.466,0.712 -0.628,1.123 -0.913,-7.346 -0.927,-17.153 2.217,-25.882 5.187,0.854 11.086,1.561 12.604,1.679 0.039,0.01 0.075,0.01 0.116,0.01 0.384,0 0.751,-0.145 1.036,-0.405 0.307,-0.286 0.393,-0.634 0.62,-1.171 0.236,-0.573 1.454,-3.401 2.315,-4.316 0.757,-0.81 2.445,-0.577 2.834,0.778 0.069,0.241 0.058,0.472 -0.161,0.761 -9.574,12.45 -5.634,27.282 -4.086,31.81 0.249,0.706 0.216,1.434 -0.089,1.993 -0.197,0.365 -0.491,0.62 -0.809,0.702 -1.463,0.37 -2.801,0.708 -4.034,1.015 0.181,-0.896 0.261,-1.818 0.126,-2.673 m 31.38,-68.276 c 0.242,0.647 1.089,1.58 1.65,2.153 0.299,0.312 0.165,0.458 -0.33,0.386 -0.816,-0.116 -2.014,-0.243 -2.482,-0.107 -0.484,0.138 -1.373,1.002 -1.949,1.612 -0.332,0.343 -0.499,0.239 -0.431,-0.249 0.107,-0.783 0.214,-1.884 0.047,-2.346 -0.172,-0.499 -1.066,-1.504 -1.645,-2.12 -0.294,-0.312 -0.172,-0.455 0.305,-0.375 0.781,0.118 1.925,0.255 2.529,0.09 0.553,-0.158 1.304,-0.872 1.839,-1.455 0.389,-0.413 0.545,-0.34 0.458,0.213 -0.123,0.708 -0.211,1.644 0.009,2.198 m 5.155,15.528 c 0.253,0.645 1.094,1.58 1.653,2.159 0.296,0.3 0.157,0.448 -0.326,0.384 -0.822,-0.118 -2.015,-0.247 -2.488,-0.11 -0.481,0.14 -1.367,1.002 -1.949,1.604 -0.324,0.343 -0.491,0.241 -0.426,-0.25 0.102,-0.778 0.208,-1.875 0.045,-2.337 -0.176,-0.501 -1.062,-1.504 -1.649,-2.119 -0.293,-0.318 -0.164,-0.453 0.304,-0.382 0.782,0.129 1.926,0.26 2.523,0.099 0.563,-0.162 1.313,-0.88 1.849,-1.453 0.387,-0.416 0.551,-0.348 0.45,0.207 -0.115,0.712 -0.205,1.642 0.014,2.198 m 13.495,-27.03 c 0.251,0.65 1.093,1.586 1.658,2.154 0.299,0.313 0.166,0.452 -0.331,0.383 -0.818,-0.115 -2.013,-0.242 -2.485,-0.103 -0.485,0.137 -1.371,0.997 -1.948,1.609 -0.33,0.34 -0.493,0.239 -0.424,-0.25 0.101,-0.778 0.202,-1.875 0.041,-2.343 -0.17,-0.501 -1.067,-1.506 -1.647,-2.118 -0.29,-0.311 -0.167,-0.453 0.307,-0.376 0.78,0.123 1.924,0.258 2.527,0.09 0.551,-0.154 1.306,-0.875 1.843,-1.453 0.384,-0.415 0.538,-0.34 0.452,0.21 -0.117,0.708 -0.205,1.644 0.007,2.197 m 2.04,21.823 c 0.255,0.64 1.093,1.579 1.653,2.156 0.304,0.31 0.165,0.45 -0.324,0.387 -0.823,-0.116 -2.016,-0.252 -2.49,-0.113 -0.478,0.137 -1.363,1.004 -1.95,1.612 -0.323,0.343 -0.485,0.238 -0.417,-0.252 0.099,-0.776 0.204,-1.878 0.039,-2.339 -0.175,-0.503 -1.067,-1.505 -1.647,-2.119 -0.286,-0.312 -0.167,-0.452 0.307,-0.385 0.776,0.128 1.925,0.262 2.523,0.096 0.562,-0.153 1.313,-0.873 1.844,-1.457 0.386,-0.414 0.544,-0.339 0.451,0.213 -0.113,0.709 -0.203,1.647 0.011,2.201 m 10.33,1.111 c -0.107,0.008 -1.514,-0.187 -3.216,2.038 -0.691,0.911 -0.392,2.5 0.033,2.394 0.427,-0.099 1.896,-1.325 1.871,-1.154 -0.034,0.323 -0.239,0.811 -0.485,1.181 -0.188,0.282 -1.401,0.971 -1.745,1.544 -0.422,0.714 -0.008,1.649 -0.093,1.777 -0.146,0.22 -0.516,0.347 -0.608,0.253 -0.493,-0.489 -0.645,-2.304 0.08,-3.21 0.287,-0.357 -1.047,-1.297 -0.793,-2.702 0.192,-1.064 0.685,-1.475 1.301,-1.901 1.025,-0.704 1.755,-0.811 2.826,-1.664 2.007,-1.596 2.717,-2.265 4.327,-2.433 0.503,-0.052 1.847,0.46 2.252,0.575 2.028,0.585 3.26,0.239 3.924,-0.04 0.38,-0.157 0.866,-0.47 1.375,-0.379 0.417,0.077 0.662,0.623 0.617,1.865 -0.699,-0.658 -3.277,-0.625 -3.461,0.242 -0.164,0.79 0.393,3.998 0.186,4.264 -0.372,0.482 -0.691,0.362 -1.376,0.121 -0.393,-0.123 -0.864,0.225 -0.854,0.329 0.022,0.199 0.623,0.271 0.847,0.377 0.368,0.185 0.79,0.37 1.072,0.357 0.305,-0.014 0.636,-0.305 0.929,-0.446 0.219,-0.113 0.376,-0.116 0.437,-0.223 0.111,-0.227 -0.198,-0.406 -0.209,-0.941 -0.035,-1.269 -0.105,-2.764 -0.066,-2.865 0.053,-0.059 0.137,-0.155 0.253,-0.082 0.167,0.112 0.271,0.342 0.678,0.356 0.247,0.015 0.43,-0.176 0.545,-0.325 0.075,-0.096 0.675,-0.44 0.838,-0.318 0.135,0.094 -0.002,0.318 -0.019,0.708 0,0.213 0.181,1.461 0.165,1.706 -0.116,1.74 -0.905,3.542 -2.074,5.366 -0.303,0.474 -0.483,0.987 -0.875,1.364 -0.482,0.476 -1.977,1.275 -5.076,-1.182 -0.782,-0.615 -1.226,-1.451 -1.487,-1.454 -0.193,0 -0.262,0.552 -0.262,0.959 0,0.511 0.575,1.323 1.326,2.011 0.492,0.463 1.493,1.044 1.986,1.211 0.834,0.284 1.866,0.589 2.676,0.9 1.893,0.721 5.017,2.078 6.455,3.513 1.629,1.629 3.042,4.453 4.127,8.144 0.589,1.995 1.8,7.331 3.063,12.256 1.185,4.606 2.445,8.874 2.441,8.835 -4.111,3.27 -3.058,8.892 -3.182,9.903 -0.313,0.016 -3.559,-20.951 -5.928,-31.102 -0.049,-0.212 -0.155,-0.458 -0.532,-0.442 -0.373,0.012 -0.421,0.346 -0.431,0.532 -0.004,0.182 3.049,30.686 3.311,35.194 -4.379,-0.452 -5.623,2.731 -7.022,2.382 0,0 -0.894,0.055 -0.92,-1.574 -0.004,-0.235 -0.571,-18.904 -1.107,-29.997 -0.217,-4.52 -0.244,-9.371 -0.463,-13.92 -0.009,-0.425 -0.181,-0.918 -0.53,-0.438 -0.917,1.973 -3.083,2.288 -5.029,1.883 -0.597,-0.205 -2.205,-0.465 -4.505,-3.022 -0.389,-0.346 -0.845,-0.063 -0.743,0.313 0.727,2.619 3.137,4.185 4.804,4.919 1.324,0.519 2.02,0.587 3.067,0.636 0.146,2.163 0.229,4.237 0.231,6.933 -2.068,-2.04 -4.947,-2.184 -6.922,-3.35 -1.878,-1.116 -3.214,-2.995 -4.686,-5.499 0,0 -0.332,-0.623 -0.738,-0.387 -0.414,0.223 -0.153,0.884 -0.153,0.884 0.697,2.542 1.98,5.607 4.612,7.558 1.185,0.875 3.917,2.019 5.153,2.68 2.197,1.183 2.783,3.978 2.783,3.978 -1.551,3.445 -4.316,6.356 -7.226,9.565 -2.908,3.212 -12.324,10.625 -12.084,8.92 0.307,-2.177 0.339,-7.357 0.339,-8.794 0.002,-7.415 -0.414,-10.287 -0.29,-15.595 -1.431,2.578 -3.501,3.029 -4.14,3.452 0,0.148 0.202,23.078 0.195,23.732 -0.966,-0.264 -2.658,-3.009 -3.417,-5.181 -0.124,-0.149 0.06,-32.495 0.263,-32.581 l 2.644,-1.349 c 0.102,1.979 0.067,5.086 0.086,6.23 2.778,-3.45 4.56,-5.975 7.691,-7.621 2.299,-1.209 6.521,-1.934 8.229,-2.81 1.194,-1.04 2.647,-6.365 2.901,-8.03 0.093,-0.633 0.162,-1.352 -0.192,-1.329 m -3.426,-6.955 c 0.724,-3.016 3.265,-4.115 5.633,-5.342 0.604,-0.31 1.18,-0.907 1.575,-1.579 0.509,-0.855 0.271,-2.159 -0.477,-1.443 -0.453,0.42 -1.539,1.3 -2.835,1.813 -1.583,0.631 -1.978,0.908 -3.321,2.25 -0.147,-0.736 -0.195,-3.585 1.078,-5.698 0.387,-0.646 0.949,-1.164 1.563,-1.528 -0.403,-1.966 0.027,-3.055 0.262,-3.107 0.417,-0.079 1.435,1.289 2.03,1.815 0.601,0.523 1.261,-0.121 0.839,-0.565 -0.135,-0.14 -0.368,-0.452 -0.601,-0.705 0.126,-0.455 0.163,-0.886 0.385,-0.781 0.18,0.09 1.198,1.029 1.511,2.457 0.174,0.087 0.95,0.176 1.812,0.907 2.612,2.222 4.489,6.609 5.548,12.919 -0.146,-0.079 -0.428,-0.671 -1.004,-0.677 -0.44,-0.002 -1.226,0.346 -1.409,0.425 -0.883,0.415 -2.293,0.338 -3.396,-0.082 -0.317,-0.118 -1.69,-0.52 -2.635,-0.419 -1.672,0.176 -2.922,0.753 -4.575,2.326 -1.167,1.107 -2.709,1.644 -2.709,1.644 -0.08,-0.449 -0.265,-0.729 -0.08,-1.208 0.157,-0.425 0.642,-0.988 0.648,-1.332 0.019,-0.799 -0.063,-1.161 0.158,-2.09 m 33.598,5.844 c 0.258,0.64 1.099,1.579 1.654,2.156 0.305,0.31 0.161,0.45 -0.322,0.387 -0.824,-0.116 -2.016,-0.252 -2.49,-0.113 -0.476,0.137 -1.364,1.004 -1.947,1.612 -0.326,0.343 -0.489,0.238 -0.422,-0.252 0.098,-0.776 0.208,-1.878 0.045,-2.339 -0.18,-0.503 -1.074,-1.505 -1.65,-2.119 -0.29,-0.312 -0.173,-0.452 0.302,-0.385 0.779,0.128 1.927,0.262 2.528,0.096 0.553,-0.153 1.305,-0.873 1.845,-1.457 0.382,-0.414 0.543,-0.339 0.447,0.213 -0.117,0.709 -0.205,1.647 0.01,2.201 m 6.281,34.119 1.934,0.005 0.011,3.149 h 1.873 l 0.024,-6.135 0.816,-2.265 0.748,2.265 0.009,3.067 1.056,-0.667 0.983,0.637 v -3.001 l 0.749,-2.325 0.706,2.331 0.009,6.084 1.375,-0.004 c 0,-0.031 -0.003,-0.219 -0.003,-1.251 0,-1.41 1.47,-2.01 1.47,-2.01 0,0 1.472,0.722 1.472,2.01 v 1.251 h 1.781 v -0.988 l 1.437,0.005 0.004,-1.296 1.861,-0.902 1.849,0.894 0.002,2.38 c 0,0 2.318,0 3.134,0.002 0.211,0.831 0.382,1.648 0.513,2.46 -5.123,0.004 -18.998,0.023 -20.243,0.023 -1.344,0 -1.006,1.548 0.323,1.547 6.419,-0.013 14.683,0.579 20.237,1.725 0.173,4.822 -0.884,9.284 -2.037,12.949 -0.663,2.125 -0.649,3.789 0.061,5.078 0.839,1.534 2.407,2.115 3.521,2.417 0.246,0.069 0.757,0.209 1.437,0.389 -0.947,0.812 -1.042,2.047 -1.071,2.51 -0.204,2.762 1.825,5.16 3.299,6.911 0.171,0.201 0.345,0.402 0.501,0.594 -0.555,0.29 -1.563,1.006 -1.734,1.706 -0.272,1.052 1.467,3.921 3.164,6.4 -0.336,-0.282 -0.699,-0.54 -1.076,-0.68 -1.441,-0.532 -2.467,-0.196 -3.173,1.04 -0.857,1.522 -0.994,3.63 -1.068,5.254 -0.476,-0.286 -1.296,-0.582 -2.077,-0.582 -0.089,0 -0.187,0.008 -0.286,0.017 -1.659,0.147 -2.346,1.628 -2.575,2.12 -0.007,0.017 -0.014,0.033 -0.024,0.049 -0.333,-0.229 -0.827,-0.47 -1.54,-0.623 -0.705,-0.151 -1.259,-0.196 -1.668,-0.208 5.5,-4.207 7.075,-11.969 3.417,-18.05 -3.666,-6.099 -11.315,-8.336 -17.63,-5.389 -1.195,0.134 -2.336,-0.49 -2.336,-0.49 0,0 0.67,-1.347 1.322,-2.837 0.456,-1.047 0.844,-2.277 0.981,-4.107 0.074,-0.954 -0.07,-2.019 -0.162,-3.175 -0.137,-1.582 0.024,-4.454 -0.869,-6.496 -2.27,-5.224 -6.589,-5.442 -6.589,-5.442 0,0 -0.491,-3.845 -0.799,-5.113 0,0 1.337,-0.014 3.44,-0.013 v -1.485 l 1.445,0.009 V 89.711 Z M 149.71,55.592 c 0.255,0.64 1.099,1.579 1.65,2.156 0.307,0.31 0.161,0.45 -0.326,0.387 -0.82,-0.116 -2.006,-0.252 -2.483,-0.113 -0.48,0.137 -1.368,1.004 -1.945,1.612 -0.332,0.343 -0.494,0.238 -0.426,-0.252 0.1,-0.776 0.206,-1.878 0.042,-2.339 -0.179,-0.503 -1.072,-1.505 -1.646,-2.119 -0.295,-0.312 -0.174,-0.452 0.302,-0.385 0.776,0.128 1.923,0.262 2.521,0.096 0.563,-0.153 1.313,-0.873 1.849,-1.457 0.387,-0.414 0.548,-0.339 0.45,0.213 -0.117,0.709 -0.206,1.647 0.012,2.201 m 18.47,61.449 c -1.092,-0.285 -2.151,-0.565 -3.098,-0.829 -1.193,-0.321 -1.517,-0.691 -1.65,-0.943 -0.279,-0.513 -0.22,-1.445 0.176,-2.707 1.53,-4.862 5.971,-19.009 -4.954,-32.279 0.429,-1.577 2.137,-2.005 2.957,-1.121 0.87,0.918 1.803,3.718 2.726,5.105 0.225,0.344 1.272,0.773 1.659,0.773 0.035,0 7.056,-0.809 12.21,-1.651 2.938,8.415 2.957,17.902 2.083,25.276 -0.108,-0.192 -0.223,-0.376 -0.361,-0.543 -0.569,-0.729 -1.329,-1.143 -2.257,-1.229 l -0.07,-0.008 c -2.962,-0.264 -4.226,3.082 -4.408,5.469 -0.089,-0.042 -0.202,-0.096 -0.307,-0.143 -0.638,-0.301 -1.604,-0.752 -2.423,-0.752 -1.533,0.006 -2.381,0.689 -2.597,2.087 -0.171,1.114 0.021,2.346 0.314,3.495 m -9.154,44.366 c -0.108,0.098 -0.216,0.197 -0.314,0.293 -0.037,-0.089 -0.091,-0.204 -0.133,-0.31 -0.292,-0.647 -0.724,-1.621 -1.35,-2.148 -1.17,-1.003 -2.233,-1.053 -3.326,-0.12 -1.338,1.134 -2.189,3.065 -2.819,4.567 -0.232,-0.299 -0.612,-0.647 -1.069,-0.925 -1.59,-1.759 -1.326,-4.042 -1.281,-4.857 0.027,-0.88 -0.679,-0.855 -1.34,0.381 -2.12,3.966 -3.044,5.499 -5.381,7.832 -1.664,1.667 -5.679,3.785 -6.484,3.429 -0.163,-0.065 4.036,-5.238 4.512,-9.624 -0.07,-1.006 -0.748,-0.917 -1.334,0 -4.503,7.054 -9.634,9.847 -12.321,10.884 0.368,-1.947 0.628,-3.944 0.757,-5.975 0.03,0.082 -3.247,-0.563 -3.247,-4.279 0,-3.405 2.726,-3.863 2.758,-3.789 -1.349,-10.173 -5.899,-18.686 -11.997,-23.317 0.191,-2.824 -0.214,-7.21 3.589,-11.441 0.914,-1.023 4.237,-3.043 5.986,-3.718 0.567,1.226 1.33,2.114 2.03,3.252 0.561,1.12 0.255,2.545 -0.389,4.533 -1.346,3.691 -1.813,5.263 -1.846,6.744 -0.012,0.787 0.6,2.161 1.179,1.867 1.497,-5.046 3.482,-11.18 3.203,-13.234 -0.393,-2.232 -2.431,-3.11 -2.601,-5.433 -0.09,-0.43 -0.097,-0.926 -0.045,-1.387 0.005,-0.03 0.016,-0.062 0.019,-0.093 0.173,-1.638 1.509,-3.494 1.786,-3.856 1.319,-0.625 3.219,-1.76 4.253,-2.67 1.04,-0.908 2.44,-2.139 2.885,-2.883 0.021,-0.041 0.052,-0.07 0.076,-0.102 0.068,-0.124 0.124,-0.243 0.164,-0.373 0.321,-1.072 -0.778,-2.57 -0.685,-2.673 0.123,-0.118 1.387,0.475 1.684,1.957 0.129,0.669 0.104,0.965 -0.055,1.232 0.67,0.384 1.837,0.74 3.204,2.019 0.59,0.548 0.851,1.615 0.743,2.36 -1.343,-0.257 -2.74,0.435 -2.849,0.903 -0.17,0.987 0.184,2.134 0.222,3.047 0.008,0.264 0.088,0.764 -0.014,0.872 -0.612,0.534 -1.783,-0.343 -1.848,0.373 -0.008,0.225 0.479,0.131 0.702,0.253 0.285,0.153 0.523,0.496 0.873,0.491 0.228,-0.001 0.392,-0.278 0.756,-0.579 0.208,-0.184 0.344,-0.157 0.5,-0.304 0.132,-0.102 0.027,-0.501 -0.011,-0.752 -0.091,-0.725 -0.188,-1.881 -0.156,-2.417 0.013,-0.116 0.167,-0.125 0.273,-0.045 0.253,0.195 0.491,0.151 0.625,0.127 0.189,-0.033 0.371,-0.187 0.485,-0.344 0.08,-0.085 0.472,-0.773 0.458,-0.528 -0.021,0.339 0.042,0.572 0.08,0.822 0.051,0.304 0.239,1.065 0.184,1.66 -0.146,1.606 -0.386,2.75 -1.692,5.136 -0.282,0.474 -0.51,1.387 -1.281,1.582 -2.43,0.616 -5.162,-1.455 -6.612,-2.997 0,0 -0.93,-0.804 -1.135,-1.424 -0.107,-0.334 0.442,-1.692 0.655,-2.232 0.178,-0.446 -0.351,-0.476 -0.803,-0.107 -0.39,0.315 -0.675,1.171 -0.675,1.171 -0.423,1.024 -0.323,1.688 -0.145,2.154 0.923,2.144 3.11,3.896 2.495,6.515 -0.999,5.221 -1.357,17.494 -3.488,17.494 -2.48,0 -6.614,-8.949 -7.366,-10.127 -0.899,-1.399 -2.515,-0.737 -1.377,1.423 0.65,1.236 4.704,11.188 8.816,11.54 1.41,0.123 1.98,-0.851 2.557,-2.766 0.819,-2.763 1.629,-10.099 2.882,-18.087 0.123,-0.77 -0.218,-1.596 -0.329,-2.087 1.321,1.196 3.375,1.662 5.558,1.994 0.395,0.036 0.82,0.036 1.264,0 -4.461,3.527 -6.263,9.412 -4.661,14.76 l -0.022,-0.033 c 0,0 2.196,7.423 1.672,10.979 -0.417,2.188 -1.659,2.435 -1.949,2.627 -0.881,0.589 -0.601,1.342 -0.516,1.437 0.285,0.332 0.598,0.146 1.823,-0.328 2.605,-1.023 11.701,-5.23 20.109,-4.706 0.243,0.024 0.492,0.082 0.75,0.148 0.309,0.106 0.623,0.236 0.928,0.389 0.572,0.299 1.041,0.814 1.427,1.481 0.288,0.511 0.489,1.031 0.609,1.387 0.145,0.508 0.312,0.994 0.473,1.465 0.104,0.425 0.197,0.867 0.289,1.309 -0.609,0.099 -1.664,0.369 -2.069,0.95 -0.637,0.921 -0.007,4.293 0.722,7.231 m -19.179,-29.169 c -1.513,0.147 -2.728,-0.028 -3.617,-0.278 0.258,-2.619 1.388,-5.131 3.28,-7.075 -0.308,1.141 -0.716,3.769 0.337,7.353 m 13.533,-3.282 c -0.199,-0.331 -0.291,-0.541 -0.518,-0.854 -2.99,-4.211 -6.229,-5.807 -8.016,-6.388 4.35,-1.204 9.082,0.188 12.082,3.65 -0.329,2.366 -1.634,6.221 -7.321,9.69 -1.676,1.026 -3.231,1.719 -4.646,2.172 -0.244,-0.339 -0.471,-0.678 -0.696,-1.026 -0.299,-0.466 -0.584,-0.958 -0.85,-1.453 -0.113,-0.201 -0.211,-0.397 -0.305,-0.602 1.412,-0.361 3.024,-1.008 4.838,-2.095 0.482,-0.288 0.482,-0.295 0.928,-0.553 0.815,-0.478 -0.495,-2.647 -1.348,-2.197 -0.45,0.236 -0.448,0.25 -0.933,0.535 -1.612,0.954 -3.08,1.568 -4.391,1.944 -1.179,-4.034 -0.471,-7.594 -0.214,-8.618 1.786,0.524 6.253,2.218 9.011,6.417 0.26,0.41 0.483,0.794 0.757,1.187 0.579,0.819 2.213,-0.834 1.622,-1.809 m 3.267,10.096 c 2.015,-2.083 2.838,-4.211 3.168,-5.778 -0.042,2.869 -1.125,5.676 -3.112,7.832 0.021,-0.545 0.012,-1.245 -0.056,-2.054 m -0.344,-2.492 c -0.028,-0.172 -0.063,-0.343 -0.108,-0.524 -0.063,-0.327 -0.063,-0.192 -0.129,-0.54 -0.112,-0.614 -0.453,-0.475 -1.087,0.205 -0.38,0.393 -0.736,0.965 -0.651,1.354 0.075,0.338 -0.007,0.061 0.082,0.38 0.065,0.246 0.126,0.491 0.185,0.726 -0.684,0.552 -1.47,1.103 -2.372,1.648 -1.221,0.744 -2.369,1.297 -3.436,1.71 -0.744,-0.692 -1.528,-1.474 -2.293,-2.357 1.324,-0.442 2.769,-1.105 4.325,-2.071 5.664,-3.51 6.953,-7.906 7.213,-10.23 0.031,0.049 0.068,0.103 0.096,0.156 0.464,0.77 0.823,1.568 1.097,2.382 -0.079,0.9 0.101,3.87 -2.922,7.161 m -0.973,5.818 c -0.389,0.307 -0.799,0.598 -1.237,0.859 -0.646,0.386 -1.308,0.705 -1.983,0.959 -0.403,-0.283 -0.912,-0.655 -1.488,-1.105 0.855,-0.369 1.765,-0.831 2.711,-1.417 0.637,-0.385 1.218,-0.793 1.734,-1.202 0.148,0.834 0.223,1.493 0.263,1.906 m -6.697,1.4 c 0.536,0.36 1.03,0.668 1.471,0.926 -0.71,0.072 -1.392,0.138 -2.052,0.22 -1.528,0.008 -3.042,-0.278 -4.462,-0.847 1.352,0.224 3.043,0.249 5.043,-0.299 m -8.479,-1.817 c -0.875,-0.778 -1.648,-1.703 -2.291,-2.759 -0.035,-0.065 -0.07,-0.13 -0.113,-0.2 1.325,0.569 3.45,1.171 6.278,0.749 0.819,0.921 1.688,1.744 2.542,2.463 -3.025,0.708 -5.201,0.222 -6.416,-0.253 m 1.505,-5.451 c 0.259,0.447 0.535,0.876 0.828,1.293 -2.394,0.357 -4.256,0.017 -5.501,-0.401 -0.487,-1.235 -0.749,-2.529 -0.798,-3.813 0.64,0.318 2.146,1.031 4.487,0.933 0.164,0.384 0.346,0.777 0.551,1.179 0.134,0.278 0.285,0.54 0.433,0.809 M 129.742,83.659 c 1.952,9.817 2.547,14.372 2.547,14.372 0,0 -1.227,0 -2.128,0.192 -0.129,0.129 -1.146,-7.894 -2.606,-13.788 -3.067,-12.32 -4.968,-14.883 -7.931,-15.4 -1.256,-0.219 -1.746,0.439 -1.971,0.524 -0.188,-0.209 -0.639,-0.463 -0.792,-0.616 0,0 0.575,-4.289 3.498,-4.215 3.497,0.089 7.112,7.532 9.383,18.931 M 84.629,160.56 c 0.085,2.958 -3.599,4.275 -3.599,4.275 -0.08,1.998 0.114,4.093 0.533,6.205 -2.441,-0.827 -8.071,-3.459 -12.955,-11.114 -0.587,-0.917 -1.264,-1.006 -1.335,0 0.478,4.386 4.675,9.558 4.509,9.624 -0.804,0.356 -4.821,-1.762 -6.484,-3.429 -2.335,-2.333 -3.263,-3.866 -5.383,-7.832 -0.659,-1.236 -1.359,-1.261 -1.334,-0.381 0.054,0.938 0.383,3.802 -2.112,5.594 -0.618,-1.473 -1.451,-3.291 -2.734,-4.379 -1.097,-0.933 -2.162,-0.884 -3.335,0.12 -0.615,0.527 -1.051,1.501 -1.335,2.148 -0.053,0.106 -0.104,0.221 -0.147,0.31 -0.096,-0.097 -0.2,-0.195 -0.313,-0.293 0.734,-2.938 1.366,-6.31 0.724,-7.235 -0.439,-0.639 -1.675,-0.901 -2.224,-0.979 0.08,-0.233 0.162,-0.479 0.256,-0.732 0.161,-0.463 0.336,-0.966 0.501,-1.481 1.093,-2.439 2.607,-4.179 5.171,-4.019 3.823,0.246 7.739,1.555 8.48,1.674 h 0.002 c 7.875,2.197 11.167,3.76 11.832,3.834 0.936,0.107 0.861,-0.556 0.579,-1.53 -0.373,-1.261 -0.845,-2.525 0.213,-5.263 0.431,-1.137 1.254,-2.873 1.961,-4.321 1.659,-2.881 3.415,-6.669 4.498,-8.675 0.816,-1.693 0.943,-2.812 0.192,-3.167 -0.928,-0.303 -2.088,1.833 -2.782,3.225 -1.31,2.32 -2.974,6.139 -5.246,8.676 -0.909,0.916 -1.218,0.801 -2.404,0.524 -4.848,-1.351 -15.141,-6.814 -16.777,-6.716 -1.748,0.085 -3.521,-0.438 -4.88,-1.575 -0.217,0.434 -0.902,0.508 -1.023,0.22 0.131,-0.392 0.131,-0.965 0.436,-1.182 0.368,-0.455 1.363,-0.946 2.298,-1.24 1.925,-0.131 2.899,0.863 5.178,2.054 2.497,0.351 9.26,1.514 13.922,2.946 1.317,0.262 1.591,-0.667 0.57,-1.281 l -0.869,-0.552 c 1.442,-4.149 2.876,-7.25 5.283,-10.958 1.605,-2.484 3.349,-1.776 6.029,-3.127 2.344,-0.96 3.559,-2.502 5.311,-3.897 5.499,4.897 7.104,12.663 8.139,16.714 -7.037,5.029 -12.516,14.462 -12.653,23.227 -0.006,0.104 3.209,0.521 3.307,3.988 M 56.7,140.725 c -1.517,-0.65 -2.839,-1.223 -4.353,-1.862 -1.859,-0.782 -3.956,-1.591 -5.778,-2.43 0.428,-0.455 0.521,-0.786 1.829,-0.921 0.313,0.343 2.479,1.727 4.19,1.612 2.238,-0.164 6.664,2.414 8.067,3.044 2.203,0.99 4.607,2.087 6.771,3.454 -1.286,1.146 -2.136,3.212 -2.136,3.212 0,0 -6.616,-1.969 -10.404,-2.946 -3.202,-0.822 -5.854,-1.56 -8.437,-2.108 -0.132,-0.417 -0.557,-3.355 -0.267,-3.285 0.924,0.208 6.602,2.14 6.602,2.14 0,0 2.723,0.965 3.595,1.285 1.459,0.524 2.127,-0.425 0.321,-1.195 m 0.904,-8.732 c 0.741,-0.786 1.583,-1.302 2.37,-1.629 0.919,-0.312 1.436,-0.479 2.403,-0.614 2.013,0.745 3.408,1.22 5.416,2.009 -0.393,0.831 -0.624,1.522 -0.851,1.98 -3.157,-0.706 -5.838,-1.124 -9.338,-1.746 m 17.27,-19.922 c -0.46,0.179 -0.097,0.686 -0.268,2.488 -0.188,1.892 -0.707,3.389 -1.95,3.809 -0.659,0.192 -0.904,-0.464 -1.304,-0.765 -0.171,-0.129 -0.391,0.049 -0.579,-0.012 -0.145,-0.096 -0.102,-0.41 -0.227,-0.473 -0.16,-0.088 -0.486,0.08 -0.572,0.052 -0.096,-0.035 -0.194,-0.132 -0.219,-0.252 -0.043,-0.219 -0.172,-0.623 -0.284,-0.589 -0.168,0.144 -0.352,0.293 -0.452,0.377 -0.244,0.187 -0.35,0.247 -0.561,0.234 -0.233,-0.047 -0.299,-0.198 -0.524,-0.464 -0.332,-0.398 -0.806,-1.078 -1.077,-1.467 -0.223,-0.339 -0.54,-0.88 -1.002,-0.962 -0.727,-0.13 -2.229,-1.156 -2.602,-3.126 -0.052,-0.186 -0.093,-0.42 -0.129,-0.776 -0.141,-1.5 0.161,-2.931 0.732,-2.748 0.049,0.01 0.082,0.043 0.102,0.083 0.012,-0.018 0.012,-0.02 0.012,-0.001 v 0.022 c 0.057,0.115 0.037,0.311 0.013,0.557 0.012,0.749 0.047,1.221 0.285,1.483 0.291,0.333 0.892,0.348 1.177,0.299 1.218,-0.188 2.521,0.026 3.886,0.187 0.82,0.159 1.404,-0.129 1.747,-0.661 0.307,-0.57 0.907,-1.132 1.56,-1.261 1.969,-0.126 3.288,1.41 4.736,2.512 1.94,1.486 6.221,4.743 6.221,4.743 -1.282,1.663 -3.761,3.237 -5.818,3.983 -0.814,-1.677 -1.438,-2.101 -1.851,-2.434 0.109,-0.914 0.358,-4.867 -1.052,-4.838 m 16.98,5.888 c 0,0 3.791,-0.727 6.336,-2.476 1.645,-1.129 4.713,-3.793 6.271,-8.438 0.513,-1.522 -0.239,-2.677 -1.281,-0.947 -2.576,4.287 -7.793,9.559 -12.933,9.149 -1.42,-0.116 -2.455,-1.257 -3.011,-2.046 7.778,-3.733 14.606,-10.953 20.652,-19.207 l -0.534,18.542 c -0.79,1.492 -1.761,3.167 -2.669,4.372 -2.786,3.675 -6.616,6.269 -9.361,4.296 -1.772,-1.273 -3.47,-3.245 -3.47,-3.245 m -7.241,-68.41 c 0.013,0.496 -1.791,2.136 -1.791,2.136 0,0 0.287,9.809 0.195,9.772 -0.579,0.132 -1.663,0.478 -2.139,0.792 0,0.041 0.25,-10.497 0.25,-10.497 0,0 -1.522,-1.536 -1.528,-2.046 -0.014,-0.505 2.044,-8.144 2.507,-8.144 0.463,0 2.492,7.484 2.506,7.987 m -0.494,13.537 c 0.438,-0.133 0.876,0.221 0.958,0.609 0,0.258 -0.206,0.583 -0.225,0.858 -0.022,0.299 0.147,0.55 0.107,0.851 -0.039,0.296 -0.317,0.696 -0.379,0.968 -0.16,0.671 -0.164,1.119 -0.461,1.351 -0.461,0.387 -3.326,2.192 -5.251,2.625 -0.354,0.083 -0.694,3.719 -0.721,4.064 -0.118,1.68 -0.028,3.373 -0.141,5.048 -0.156,2.18 -0.055,4.628 -0.45,6.76 -0.312,1.689 -2.873,2.895 -4.548,2.895 -1.003,0 0.691,-8.421 0.825,-9.07 0.818,-3.937 1.567,-7.789 3.357,-11.444 1.352,-2.756 3.902,-4.785 6.929,-5.515 m 59.205,-50.284 c 25.052,11.013 40.37,43.434 38.891,66.759 -0.633,0.132 -1.329,0.267 -2.063,0.398 l -1.549,0.266 -1.546,0.264 c -3.661,0.587 -7.612,1.103 -9.97,1.367 -0.082,-2.338 -0.318,-4.694 -0.684,-7.055 l -0.274,-1.528 -0.279,-1.539 c -4.324,-21.146 -18.872,-41.73 -31.361,-47.264 1.136,-1.503 2.497,-3.296 3.827,-5.043 1.825,-2.399 3.697,-4.864 5.008,-6.625 M 103.065,6.785 c 15.441,0 26.636,5.068 33.659,9.713 -0.276,0.359 -0.552,0.728 -0.833,1.092 -1.847,2.427 -3.76,4.942 -5.043,6.678 -0.291,0.394 -0.376,0.907 -0.227,1.37 0.123,0.377 1.022,1.844 1.4,2.329 1.303,1.651 3.736,3.505 2.75,5.029 -0.273,0.429 -0.652,0.634 -1.08,0.691 -3.602,-3.421 -14.528,-11.3 -29.634,-11.3 -13.405,0 -23.241,6.222 -27.908,9.854 -0.757,0.512 -1.274,0.99 -1.292,0.99 -0.174,0 -0.976,-0.601 -0.875,-1.402 0.101,-0.751 0.842,-1.264 1.328,-1.792 0.378,-0.412 0.773,-0.837 1.11,-1.265 0.963,-1.23 1.246,-3.321 0.345,-4.502 C 75.457,22.545 73.574,20.02 71.722,17.592 71.298,17.03 70.87,16.465 70.451,15.908 77.247,11.472 88.005,6.785 103.065,6.785 M 25.398,79.562 C 23.921,56.236 39.236,23.815 64.29,12.802 c 1.316,1.761 3.189,4.226 5.013,6.625 1.326,1.748 2.687,3.54 3.82,5.043 -12.489,5.534 -27.039,26.128 -31.354,47.271 l -0.558,3.073 c -0.367,2.354 -0.6,4.707 -0.684,7.042 -2.37,-0.268 -6.369,-0.789 -10.05,-1.379 l -3.102,-0.53 c -0.706,-0.13 -1.373,-0.257 -1.977,-0.385 m -1.027,43.281 c 0.221,0 0.452,0.012 0.675,0.033 0.538,0.049 0.973,0.049 1.22,-0.09 1.141,-0.647 0.293,-2.373 -0.583,-4.082 -0.03,-0.054 -0.057,-0.106 -0.088,-0.161 -0.614,-1.192 -1.313,-2.537 -0.971,-2.986 0.157,-0.203 0.348,-0.294 0.628,-0.294 0.356,0 0.802,0.155 1.234,0.307 0.475,0.167 0.968,0.339 1.42,0.339 0.311,0 0.587,-0.088 0.808,-0.264 0.6,-0.464 0.532,-1.848 0.409,-3.219 -0.024,-0.259 -0.039,-0.474 -0.039,-0.609 -0.006,-0.571 0.088,-1.896 1.014,-2.137 l 0.365,-0.026 c 0.628,0.068 1.066,0.701 1.338,1.922 0.031,0.125 0.058,0.304 0.094,0.53 0.222,1.396 0.496,2.789 1.179,3.145 0.173,0.09 0.361,0.137 0.559,0.137 0.519,0 1.035,-0.311 1.53,-0.62 0.659,-0.403 1.253,-0.738 1.697,-0.332 0.412,0.389 -0.024,1.842 -0.416,3.118 -0.577,1.889 -1.168,3.849 0.106,4.291 0.293,0.11 0.738,0 1.218,-0.131 0.37,-0.099 0.751,-0.204 1.102,-0.204 0.475,0 0.778,0.204 0.971,0.653 0.447,1.031 -0.009,1.776 -0.543,2.635 -0.255,0.426 -0.702,0.935 -1.166,1.474 -1.182,1.354 -2.517,2.894 -1.894,4.087 0.266,0.512 0.688,0.708 1.058,0.88 0.379,0.172 0.683,0.319 0.823,0.753 0.084,0.27 -0.182,1.301 -2.525,5.131 -0.62,-0.818 -1.375,-1.519 -2.215,-1.907 -1.104,-5.709 -2.017,-11.851 -1.934,-14.965 -0.104,-1.168 -0.855,-0.996 -0.965,0.299 -0.599,3.171 -0.321,8.961 0.553,14.481 -0.167,0.054 -0.334,0.115 -0.499,0.197 l -0.064,0.029 c -0.579,0.278 -1.023,0.687 -1.338,1.199 -1.382,-1.505 -2.622,-2.988 -2.571,-3.405 0.061,-0.461 0.33,-0.65 0.675,-0.896 0.329,-0.236 0.708,-0.507 0.88,-1.056 0.398,-1.284 -1.2,-2.553 -2.595,-3.674 -0.561,-0.45 -1.093,-0.871 -1.419,-1.24 -0.789,-0.867 -1.249,-1.468 -1.011,-2.496 0.134,-0.6 0.509,-0.846 1.28,-0.846 M 74.625,225.08 c 0.902,-0.917 2.063,-3.149 3.195,-5.566 1.075,0.271 2.161,0.516 3.255,0.754 -0.826,1.905 -1.692,3.773 -2.504,5.271 -1.486,-0.206 -2.854,-0.368 -3.946,-0.459 m 9.82,1.464 c -1.158,-0.229 -2.339,-0.445 -3.494,-0.637 0.64,-1.156 1.383,-3.104 2.135,-5.231 1.226,0.229 2.456,0.443 3.707,0.635 -0.642,1.861 -1.409,3.696 -2.348,5.233 m 5.927,1.458 c -1.004,-0.323 -2.183,-0.63 -3.437,-0.926 0.796,-1.113 1.575,-3.143 2.2,-5.43 1.226,0.16 2.462,0.307 3.71,0.429 -0.654,2.306 -1.572,4.613 -2.473,5.927 m 27.399,0 c -0.892,-1.3 -1.79,-3.471 -2.456,-5.824 1.261,-0.115 2.505,-0.248 3.739,-0.405 0.628,2.226 1.38,4.207 2.158,5.303 -1.257,0.296 -2.434,0.603 -3.441,0.926 m 5.924,-1.458 c -0.919,-1.502 -1.684,-3.281 -2.308,-5.097 1.244,-0.189 2.476,-0.41 3.69,-0.647 0.702,2.103 1.457,3.984 2.108,5.107 -1.156,0.192 -2.335,0.407 -3.49,0.637 m 9.826,-1.464 c -1.098,0.091 -2.461,0.253 -3.95,0.459 -0.803,-1.464 -1.664,-3.273 -2.46,-5.148 1.092,-0.237 2.165,-0.49 3.236,-0.762 1.078,2.39 2.282,4.539 3.174,5.451 m 60.553,-84.756 c -2.59,12.53 -8.217,30.831 -20.328,46.797 -16.353,21.558 -39.498,32.491 -68.81,32.491 h -0.049 C 73.981,219.595 49.973,208.679 33.519,187.163 21.615,171.595 16.363,153.827 14.051,141.67 c -2.239,-11.772 -2.505,-22.636 -1.617,-28.757 0.051,-0.376 0.364,-1.078 1.376,-0.837 2.064,0.502 5.052,1.289 7.958,2.034 -0.117,0.314 -0.181,0.679 -0.175,1.094 0.058,1.758 1.028,3.628 1.801,5.055 -0.351,0.004 -1.41,0.079 -2.317,0.733 -1.339,0.982 -1.164,2.611 -1.1,3.151 0.299,2.757 2.726,4.747 4.495,6.203 0.211,0.172 0.412,0.335 0.598,0.491 -0.511,0.397 -1.352,1.292 -1.396,1.988 -0.06,0.9 1.526,2.745 3.347,4.559 -1.517,0.286 -2.664,1.62 -2.664,3.224 0,1.204 0.656,2.259 1.632,2.828 -0.688,0.696 -0.825,1.543 -0.406,2.55 0.668,1.621 2.237,3.036 3.469,4.092 -0.535,0.205 -1.379,0.696 -1.909,1.507 -0.915,1.399 -0.164,2.855 0.085,3.338 1.253,2.473 4.227,3.479 6.398,4.212 0.255,0.085 0.502,0.167 0.728,0.25 -0.174,0.294 -0.335,0.68 -0.346,0.703 -0.2,0.484 -0.407,1.155 -0.256,1.654 0.252,0.814 2.208,1.916 4.423,2.931 -0.6,0.593 -0.967,1.415 -0.967,2.32 0,1.781 1.422,3.22 3.184,3.274 -0.135,0.682 0.096,1.345 0.68,1.992 1.185,1.293 3.146,2.079 4.665,2.653 -0.453,0.391 -1.067,1.169 -1.273,2.062 -0.373,1.629 0.829,2.742 1.224,3.11 1.688,1.568 4.153,1.768 6.114,1.768 0.466,0 0.916,-0.007 1.35,-0.024 0.269,0 0.519,-0.009 0.763,-0.017 -0.006,0.052 -0.017,0.123 -0.028,0.188 -0.065,0.471 -0.17,1.646 0.277,2.233 0.56,0.739 3.159,1.106 5.855,1.277 -0.305,0.499 -0.48,1.081 -0.48,1.704 0,1.807 1.47,3.281 3.275,3.281 0.229,0 0.449,-0.025 0.663,-0.066 -0.17,1.081 0.25,1.887 1.287,2.442 1.547,0.822 3.655,0.904 5.279,0.947 -0.307,0.522 -0.615,1.472 -0.51,2.364 0.188,1.662 1.694,2.309 2.185,2.524 0.71,0.307 1.502,0.464 2.357,0.464 1.866,0 3.75,-0.712 5.265,-1.298 0.247,-0.094 0.491,-0.184 0.719,-0.266 0.008,0.04 0.011,0.089 0.025,0.148 0.096,0.478 0.384,1.636 1.011,2.048 0.239,0.152 0.622,0.229 1.174,0.229 2.399,0 7.464,-1.465 9.864,-2.222 0.393,2.709 1.459,5.149 3.349,6.347 1.14,0.721 15.904,0.663 17.001,0.07 0.567,-0.318 1.062,-0.769 1.503,-1.333 0.011,-0.01 0.019,-0.017 0.027,-0.033 0.924,-1.205 1.571,-2.895 1.925,-4.739 2.488,0.773 7.34,2.151 9.627,2.151 0.549,0 0.936,-0.072 1.168,-0.236 0.626,-0.405 0.914,-1.547 1.009,-2.013 0.01,-0.065 0.025,-0.131 0.031,-0.19 0.231,0.092 0.473,0.181 0.724,0.274 1.512,0.586 3.396,1.298 5.26,1.298 0.86,0 1.648,-0.155 2.361,-0.459 0.487,-0.211 1.996,-0.867 2.183,-2.52 0.101,-0.9 -0.203,-1.849 -0.521,-2.381 1.623,-0.026 3.744,-0.115 5.287,-0.938 1.141,-0.607 1.536,-1.519 1.228,-2.763 0.308,0.099 0.64,0.155 0.985,0.155 1.805,0 3.276,-1.472 3.276,-3.276 0,-0.643 -0.188,-1.238 -0.507,-1.744 2.538,-0.186 4.891,-0.544 5.42,-1.25 0.452,-0.598 0.342,-1.771 0.274,-2.259 -0.009,-0.056 -0.019,-0.113 -0.03,-0.162 0.246,0.007 0.503,0.017 0.766,0.017 0.431,0.017 0.886,0.024 1.354,0.024 1.959,0 4.422,-0.199 6.117,-1.768 0.394,-0.368 1.593,-1.48 1.223,-3.11 -0.208,-0.893 -0.818,-1.671 -1.277,-2.062 1.521,-0.574 3.477,-1.359 4.666,-2.653 0.609,-0.663 0.825,-1.35 0.661,-2.069 1.462,-0.328 2.564,-1.629 2.564,-3.197 0,-0.806 -0.293,-1.543 -0.778,-2.12 2.4,-1.069 4.605,-2.259 4.872,-3.131 0.152,-0.499 -0.056,-1.17 -0.253,-1.654 -0.014,-0.023 -0.18,-0.409 -0.347,-0.703 0.229,-0.082 0.473,-0.164 0.727,-0.25 2.172,-0.733 5.144,-1.739 6.402,-4.212 0.244,-0.482 0.991,-1.939 0.077,-3.338 -0.527,-0.811 -1.369,-1.302 -1.903,-1.507 1.228,-1.056 2.803,-2.471 3.464,-4.087 0.386,-0.946 0.297,-1.74 -0.274,-2.407 1.134,-0.519 1.927,-1.657 1.927,-2.975 0,-1.726 -1.346,-3.143 -3.042,-3.269 1.804,-1.805 3.363,-3.622 3.302,-4.514 -0.044,-0.696 -0.888,-1.591 -1.399,-1.988 0.188,-0.156 0.387,-0.319 0.595,-0.491 1.779,-1.457 4.199,-3.446 4.502,-6.203 0.059,-0.541 0.239,-2.169 -1.111,-3.151 -0.897,-0.655 -1.957,-0.729 -2.308,-0.733 0.773,-1.427 1.746,-3.297 1.795,-5.055 0.009,-0.333 -0.028,-0.635 -0.104,-0.902 0.466,-0.154 0.912,-0.304 1.24,-0.403 2.672,-0.839 5.336,-1.672 7.338,-2.314 1.08,-0.343 1.842,0.334 1.898,0.845 0.525,5.274 0.272,15.237 -2.333,27.897" /><path
   style="fill:#005f61"
   inkscape:connector-curvature="0"
   id="path128"
   d="m 44.021,185.272 c 0.558,-0.443 0.769,-0.975 0.637,-1.556 -0.131,-0.551 -0.499,-1.202 -1.116,-1.971 l -1.18,-1.49 -4.954,3.954 1.066,1.343 2.044,-1.638 0.117,0.152 c 0.509,0.642 1.051,1.129 1.588,1.437 0.585,0.325 1.201,0.252 1.798,-0.231 m -1.831,-1.123 c -0.25,-0.096 -0.521,-0.325 -0.804,-0.687 l -0.121,-0.143 1.41,-1.125 0.116,0.148 c 0.312,0.392 0.485,0.71 0.518,0.956 0.029,0.213 -0.088,0.427 -0.343,0.635 -0.304,0.238 -0.559,0.313 -0.776,0.216" /><path
   style="fill:#005f61"
   inkscape:connector-curvature="0"
   id="path130"
   d="m 47.671,191.07 c 0.71,-0.703 1.091,-1.453 1.13,-2.243 0.044,-0.79 -0.32,-1.568 -1.077,-2.328 -0.766,-0.771 -1.55,-1.146 -2.332,-1.106 -0.77,0.042 -1.527,0.417 -2.243,1.13 -0.71,0.705 -1.085,1.462 -1.132,2.243 -0.041,0.79 0.326,1.572 1.079,2.332 0.645,0.646 1.307,1.008 1.97,1.08 0.121,0.009 0.241,0.017 0.354,0.009 0.788,-0.037 1.539,-0.409 2.251,-1.117 m -0.246,-2.77 c -0.129,0.454 -0.469,0.965 -1.009,1.507 -0.554,0.544 -1.063,0.883 -1.516,1.015 -0.15,0.033 -0.288,0.049 -0.426,0.033 -0.262,-0.026 -0.507,-0.157 -0.739,-0.386 -0.346,-0.354 -0.453,-0.736 -0.335,-1.17 0.131,-0.466 0.466,-0.975 1.009,-1.509 0.552,-0.543 1.062,-0.888 1.518,-1.003 0.144,-0.049 0.285,-0.056 0.422,-0.044 0.263,0.028 0.501,0.159 0.738,0.396 0.347,0.343 0.454,0.718 0.338,1.161" /><path
   style="fill:#005f61"
   inkscape:connector-curvature="0"
   id="path132"
   d="m 51.604,190.149 -1.36,-1.218 -4.231,4.718 1.273,1.141 1.757,-1.959 0.204,0.185 c 0.345,0.314 0.529,0.588 0.529,0.818 0,0.246 -0.137,0.63 -0.411,1.131 l -0.62,1.13 1.278,1.151 0.864,-1.646 c 0.217,-0.424 0.335,-0.78 0.362,-1.085 0.023,-0.183 -0.026,-0.389 -0.128,-0.6 0.305,0.11 0.568,0.154 0.806,0.138 0.375,-0.033 0.679,-0.187 0.919,-0.461 0.466,-0.52 0.552,-1.064 0.264,-1.649 -0.277,-0.54 -0.788,-1.142 -1.506,-1.794 m -0.088,2.365 c -0.238,0.267 -0.487,0.356 -0.735,0.3 -0.287,-0.07 -0.632,-0.281 -1.02,-0.625 l -0.074,-0.075 1.19,-1.322 0.084,0.08 c 0.38,0.342 0.64,0.649 0.758,0.916 0.11,0.22 0.036,0.461 -0.203,0.726" /><polygon
   style="fill:#005f61"
   id="polygon134"
   points="54.36,199.301 57.547,195.078 56.183,194.053 52.364,199.094 55.898,201.783 56.531,200.946 " /><path
   style="fill:#005f61"
   inkscape:connector-curvature="0"
   id="path136"
   d="m 56.143,201.928 1.354,0.818 1.452,-1.123 1.924,1.172 -0.344,1.793 1.562,0.944 1,-6.806 -1.397,-0.851 z m 4.928,-0.141 -1.317,-0.794 1.717,-1.324 z" /><polygon
   style="fill:#005f61"
   id="polygon138"
   points="71.209,202.982 69.119,208.965 70.737,209.53 72.821,203.547 " /><polygon
   style="fill:#005f61"
   id="polygon140"
   points="77.771,206.169 78.073,205.202 73.689,203.849 71.828,209.915 76.306,211.29 76.611,210.278 73.77,209.406 74.283,207.749 76.887,208.548 77.188,207.583 74.584,206.781 75.025,205.323 " /><polygon
   style="fill:#005f61"
   id="polygon142"
   points="78.61,205.363 77.09,211.511 78.505,211.862 79.547,207.714 81.145,212.509 82.732,212.897 84.25,206.755 82.835,206.404 81.843,210.353 80.322,205.781 " /><polygon
   style="fill:#005f61"
   id="polygon144"
   points="89.863,214.182 91.556,214.428 92.451,208.164 90.757,207.918 " /><path
   style="fill:#005f61"
   inkscape:connector-curvature="0"
   id="path146"
   d="m 95.146,208.482 -3.267,6.039 1.575,0.157 0.827,-1.628 2.24,0.225 0.458,1.763 1.822,0.18 -2.03,-6.571 z m -0.412,3.649 0.982,-1.938 0.542,2.095 z" /><polygon
   style="fill:#005f61"
   id="polygon148"
   points="101.552,209.047 103.977,212.464 103.977,215.387 105.685,215.387 105.689,212.469 108.234,209.047 106.499,209.047 104.999,211.131 103.547,209.047 " /><polygon
   style="fill:#005f61"
   id="polygon150"
   points="135.097,208.834 133.29,203.866 131.678,204.452 133.849,210.407 138.017,208.883 137.659,207.901 " /><path
   style="fill:#005f61"
   inkscape:connector-curvature="0"
   id="path152"
   d="m 137.931,201.989 0.147,6.862 1.453,-0.637 -0.093,-1.826 2.063,-0.916 1.269,1.31 1.665,-0.746 -5.007,-4.706 z m 1.446,3.367 -0.096,-2.17 1.5,1.547 z" /><path
   style="fill:#005f61"
   inkscape:connector-curvature="0"
   id="path154"
   d="m 147.229,197.124 c -0.549,0.089 -1.227,0.401 -2.025,0.928 l -1.584,1.043 3.497,5.285 1.431,-0.947 -1.447,-2.182 0.16,-0.101 c 0.686,-0.459 1.212,-0.942 1.568,-1.462 0.38,-0.551 0.359,-1.158 -0.063,-1.805 -0.399,-0.598 -0.898,-0.858 -1.537,-0.759 m 0.257,2.486 c -0.124,0.242 -0.381,0.488 -0.759,0.745 l -0.156,0.099 -0.99,-1.498 0.15,-0.105 c 0.418,-0.279 0.747,-0.42 1.001,-0.427 0.215,-0.01 0.414,0.115 0.596,0.394 0.213,0.33 0.266,0.581 0.158,0.792" /><path
   style="fill:#005f61"
   inkscape:connector-curvature="0"
   id="path156"
   d="m 149.375,195.289 1.535,6.688 1.289,-0.918 -0.454,-1.774 1.823,-1.31 1.514,1.02 1.483,-1.064 -5.863,-3.59 z m 3.345,2.111 -1.248,0.893 -0.541,-2.102 z" /><polygon
   style="fill:#005f61"
   id="polygon158"
   points="154.146,193.093 157.549,197.189 158.861,196.083 155.455,191.998 156.797,190.873 156.153,190.098 152.145,193.435 152.792,194.218 " /><path
   style="fill:#005f61"
   inkscape:connector-curvature="0"
   id="path160"
   d="m 161.916,189.266 c -0.188,-0.028 -0.394,0 -0.616,0.086 0.138,-0.29 0.208,-0.56 0.201,-0.79 -0.009,-0.377 -0.133,-0.696 -0.389,-0.949 -0.468,-0.504 -1.029,-0.63 -1.622,-0.384 -0.558,0.225 -1.195,0.677 -1.9,1.357 l -1.315,1.271 4.39,4.565 1.228,-1.179 -1.818,-1.903 0.196,-0.183 c 0.338,-0.328 0.614,-0.492 0.855,-0.471 0.244,0.021 0.614,0.185 1.097,0.495 l 1.083,0.696 1.249,-1.179 -1.584,-0.989 c -0.408,-0.247 -0.756,-0.394 -1.055,-0.443 m -1.732,0.335 c -0.094,0.295 -0.329,0.614 -0.698,0.975 l -0.08,0.073 -1.23,-1.284 0.08,-0.078 c 0.37,-0.356 0.698,-0.593 0.97,-0.691 0.23,-0.092 0.467,-0.01 0.718,0.253 0.24,0.253 0.319,0.503 0.24,0.752" /><polygon
   style="fill:#005f61"
   id="polygon162"
   points="160.35,185.854 164.981,190.166 166.152,188.914 161.515,184.593 " /><path
   style="fill:#005f61"
   inkscape:connector-curvature="0"
   id="path164"
   d="m 163.27,182.596 3.186,6.083 1.015,-1.223 -0.897,-1.596 1.441,-1.73 1.713,0.6 1.17,-1.405 -6.581,-1.98 z m 3.773,1.19 -0.979,1.186 -1.057,-1.903 z" /><path
   style="fill:#005f61"
   inkscape:connector-curvature="0"
   id="path166"
   d="m 88.701,207.458 c -0.235,-0.068 -0.513,-0.148 -0.801,-0.195 -0.998,-0.206 -1.771,-0.082 -2.347,0.369 -0.546,0.433 -0.928,1.162 -1.133,2.144 -0.102,0.499 -0.135,0.956 -0.09,1.394 0.045,0.45 0.169,0.865 0.358,1.224 0.198,0.372 0.466,0.684 0.793,0.942 0.332,0.246 0.72,0.424 1.189,0.52 0.121,0.019 0.242,0.041 0.371,0.052 l 0.122,0.017 c 0.164,0.012 0.317,0.026 0.447,0.028 0.142,0.01 0.262,0.014 0.362,0.005 0.121,0.005 0.213,0.009 0.255,-0.005 l 0.317,-0.035 0.288,-1.622 -0.652,0.174 c -0.145,0.033 -0.321,0.077 -0.53,0.114 -0.147,0.028 -0.337,0.028 -0.556,0 l -0.085,-0.004 c -0.225,-0.054 -0.399,-0.136 -0.529,-0.267 -0.137,-0.138 -0.245,-0.302 -0.313,-0.511 -0.078,-0.225 -0.124,-0.487 -0.125,-0.773 -0.002,-0.307 0.033,-0.638 0.108,-0.982 0.063,-0.312 0.142,-0.606 0.221,-0.867 0.069,-0.213 0.155,-0.384 0.253,-0.516 0.076,-0.099 0.172,-0.164 0.288,-0.207 0.139,-0.04 0.351,-0.04 0.576,0 0.143,0.033 0.262,0.066 0.375,0.108 0.126,0.045 0.252,0.101 0.361,0.148 0.104,0.049 0.196,0.099 0.286,0.15 l 0.08,0.045 c 0.056,0.042 0.107,0.075 0.156,0.098 l 0.542,0.35 0.276,-1.558 -0.316,-0.141 c -0.13,-0.051 -0.316,-0.123 -0.547,-0.199" /><path
   style="fill:#005f61"
   inkscape:connector-curvature="0"
   id="path168"
   d="m 67.064,203.229 c 0.107,-0.197 0.218,-0.349 0.346,-0.459 0.096,-0.072 0.203,-0.122 0.332,-0.138 0.143,-0.016 0.322,0.021 0.555,0.115 0.124,0.049 0.232,0.099 0.347,0.167 0.121,0.08 0.229,0.148 0.327,0.218 0.09,0.07 0.178,0.136 0.242,0.202 0.057,0.047 0.106,0.094 0.147,0.129 l 0.529,0.497 0.579,-1.465 -0.291,-0.196 c -0.118,-0.087 -0.289,-0.181 -0.497,-0.3 -0.222,-0.117 -0.469,-0.241 -0.749,-0.347 -0.929,-0.398 -1.725,-0.426 -2.374,-0.098 -0.623,0.323 -1.139,0.961 -1.526,1.881 -0.199,0.466 -0.323,0.917 -0.358,1.359 -0.043,0.45 0,0.876 0.115,1.277 0.121,0.396 0.323,0.752 0.592,1.059 0.277,0.312 0.633,0.57 1.063,0.745 0.146,0.061 0.311,0.117 0.473,0.167 0.162,0.042 0.311,0.092 0.438,0.115 0.097,0.026 0.192,0.042 0.272,0.066 l 0.189,0.037 c 0.068,0.012 0.115,0.012 0.146,0.021 l 0.315,0.007 0.589,-1.514 -0.669,0.033 c -0.151,0.007 -0.325,0.012 -0.54,0.017 -0.065,-0.01 -0.137,-0.01 -0.211,-0.026 -0.132,-0.023 -0.278,-0.063 -0.415,-0.105 -0.208,-0.094 -0.369,-0.216 -0.466,-0.368 -0.114,-0.155 -0.187,-0.345 -0.218,-0.558 -0.031,-0.232 -0.021,-0.499 0.035,-0.776 0.062,-0.316 0.156,-0.63 0.293,-0.949 0.13,-0.303 0.263,-0.577 0.39,-0.813" /><path
   style="fill:#005f61"
   inkscape:connector-curvature="0"
   id="path170"
   d="m 117.231,210.053 c -0.093,-0.71 -0.428,-1.165 -0.995,-1.357 -0.536,-0.18 -1.278,-0.208 -2.265,-0.091 l -1.882,0.225 0.766,6.29 1.7,-0.204 -0.32,-2.594 0.187,-0.026 c 0.814,-0.094 1.51,-0.302 2.056,-0.598 0.589,-0.323 0.847,-0.884 0.753,-1.645 m -1.916,0.97 c -0.218,0.164 -0.557,0.267 -1.01,0.318 l -0.188,0.031 -0.212,-1.786 0.182,-0.023 c 0.501,-0.066 0.861,-0.045 1.083,0.057 0.203,0.091 0.32,0.295 0.361,0.63 0.049,0.377 -0.022,0.639 -0.216,0.773" /><path
   style="fill:#005f61"
   inkscape:connector-curvature="0"
   id="path172"
   d="m 123.958,209.922 c -0.23,-0.978 -0.669,-1.697 -1.316,-2.142 -0.65,-0.448 -1.503,-0.549 -2.548,-0.305 -1.055,0.247 -1.785,0.722 -2.166,1.402 -0.366,0.682 -0.442,1.521 -0.215,2.503 0.233,0.982 0.675,1.694 1.316,2.144 0.654,0.45 1.508,0.548 2.549,0.302 0.888,-0.208 1.545,-0.581 1.958,-1.108 0.077,-0.094 0.14,-0.199 0.192,-0.298 0.381,-0.689 0.461,-1.528 0.23,-2.498 m -2.489,-1.247 c 0.325,0.352 0.576,0.904 0.753,1.65 0.173,0.752 0.196,1.371 0.064,1.823 -0.044,0.147 -0.105,0.272 -0.19,0.377 -0.157,0.213 -0.398,0.351 -0.72,0.426 -0.48,0.11 -0.863,0 -1.166,-0.321 -0.329,-0.358 -0.585,-0.916 -0.759,-1.659 -0.176,-0.745 -0.195,-1.364 -0.059,-1.818 0.036,-0.148 0.105,-0.265 0.19,-0.375 0.159,-0.213 0.395,-0.344 0.72,-0.426 0.475,-0.116 0.856,-0.01 1.167,0.323" /><path
   style="fill:#005f61"
   inkscape:connector-curvature="0"
   id="path174"
   d="m 125.527,206.345 -1.749,0.516 1.821,6.075 1.639,-0.492 -0.761,-2.517 0.262,-0.084 c 0.452,-0.125 0.784,-0.14 0.979,-0.016 0.209,0.122 0.465,0.44 0.749,0.939 l 0.641,1.123 1.653,-0.5 -0.957,-1.589 c -0.25,-0.412 -0.49,-0.698 -0.737,-0.876 -0.149,-0.112 -0.348,-0.188 -0.587,-0.208 0.257,-0.199 0.436,-0.396 0.542,-0.617 0.168,-0.333 0.195,-0.675 0.09,-1.024 -0.203,-0.663 -0.627,-1.026 -1.273,-1.08 -0.601,-0.05 -1.378,0.074 -2.312,0.35 m 1.975,1.303 c 0.103,0.342 0.043,0.604 -0.129,0.785 -0.212,0.204 -0.568,0.394 -1.064,0.539 l -0.102,0.031 -0.512,-1.707 0.108,-0.033 c 0.488,-0.147 0.892,-0.206 1.179,-0.173 0.248,0.034 0.414,0.214 0.52,0.558" />
</svg>